G04 #@! TF.GenerationSoftware,KiCad,Pcbnew,(5.99.0-9568-gb9d26a55f2)*
G04 #@! TF.CreationDate,2021-03-17T08:28:42+01:00*
G04 #@! TF.ProjectId,rpi_cm4_drone_carrier_v01,7270695f-636d-4345-9f64-726f6e655f63,v01*
G04 #@! TF.SameCoordinates,Original*
G04 #@! TF.FileFunction,Legend,Top*
G04 #@! TF.FilePolarity,Positive*
%FSLAX46Y46*%
G04 Gerber Fmt 4.6, Leading zero omitted, Abs format (unit mm)*
G04 Created by KiCad (PCBNEW (5.99.0-9568-gb9d26a55f2)) date 2021-03-17 08:28:42*
%MOMM*%
%LPD*%
G01*
G04 APERTURE LIST*
%ADD10C,0.150000*%
%ADD11C,0.160000*%
%ADD12C,0.120000*%
%ADD13C,0.125000*%
%ADD14C,0.127000*%
%ADD15C,0.200000*%
%ADD16C,0.249999*%
%ADD17C,0.300000*%
G04 APERTURE END LIST*
D10*
X164059523Y-147202380D02*
X164392857Y-148202380D01*
X164726190Y-147202380D01*
X165630952Y-148107142D02*
X165583333Y-148154761D01*
X165440476Y-148202380D01*
X165345238Y-148202380D01*
X165202380Y-148154761D01*
X165107142Y-148059523D01*
X165059523Y-147964285D01*
X165011904Y-147773809D01*
X165011904Y-147630952D01*
X165059523Y-147440476D01*
X165107142Y-147345238D01*
X165202380Y-147250000D01*
X165345238Y-147202380D01*
X165440476Y-147202380D01*
X165583333Y-147250000D01*
X165630952Y-147297619D01*
X166630952Y-148107142D02*
X166583333Y-148154761D01*
X166440476Y-148202380D01*
X166345238Y-148202380D01*
X166202380Y-148154761D01*
X166107142Y-148059523D01*
X166059523Y-147964285D01*
X166011904Y-147773809D01*
X166011904Y-147630952D01*
X166059523Y-147440476D01*
X166107142Y-147345238D01*
X166202380Y-147250000D01*
X166345238Y-147202380D01*
X166440476Y-147202380D01*
X166583333Y-147250000D01*
X166630952Y-147297619D01*
X166821428Y-148297619D02*
X167583333Y-148297619D01*
X168154761Y-147678571D02*
X168297619Y-147726190D01*
X168345238Y-147773809D01*
X168392857Y-147869047D01*
X168392857Y-148011904D01*
X168345238Y-148107142D01*
X168297619Y-148154761D01*
X168202380Y-148202380D01*
X167821428Y-148202380D01*
X167821428Y-147202380D01*
X168154761Y-147202380D01*
X168250000Y-147250000D01*
X168297619Y-147297619D01*
X168345238Y-147392857D01*
X168345238Y-147488095D01*
X168297619Y-147583333D01*
X168250000Y-147630952D01*
X168154761Y-147678571D01*
X167821428Y-147678571D01*
X168773809Y-148154761D02*
X168916666Y-148202380D01*
X169154761Y-148202380D01*
X169250000Y-148154761D01*
X169297619Y-148107142D01*
X169345238Y-148011904D01*
X169345238Y-147916666D01*
X169297619Y-147821428D01*
X169250000Y-147773809D01*
X169154761Y-147726190D01*
X168964285Y-147678571D01*
X168869047Y-147630952D01*
X168821428Y-147583333D01*
X168773809Y-147488095D01*
X168773809Y-147392857D01*
X168821428Y-147297619D01*
X168869047Y-147250000D01*
X168964285Y-147202380D01*
X169202380Y-147202380D01*
X169345238Y-147250000D01*
X147750000Y-147869047D02*
X147702380Y-147964285D01*
X147702380Y-148107142D01*
X147750000Y-148250000D01*
X147845238Y-148345238D01*
X147940476Y-148392857D01*
X148130952Y-148440476D01*
X148273809Y-148440476D01*
X148464285Y-148392857D01*
X148559523Y-148345238D01*
X148654761Y-148250000D01*
X148702380Y-148107142D01*
X148702380Y-148011904D01*
X148654761Y-147869047D01*
X148607142Y-147821428D01*
X148273809Y-147821428D01*
X148273809Y-148011904D01*
X148702380Y-147392857D02*
X147702380Y-147392857D01*
X148702380Y-146821428D01*
X147702380Y-146821428D01*
X148702380Y-146345238D02*
X147702380Y-146345238D01*
X147702380Y-146107142D01*
X147750000Y-145964285D01*
X147845238Y-145869047D01*
X147940476Y-145821428D01*
X148130952Y-145773809D01*
X148273809Y-145773809D01*
X148464285Y-145821428D01*
X148559523Y-145869047D01*
X148654761Y-145964285D01*
X148702380Y-146107142D01*
X148702380Y-146345238D01*
X148797619Y-145583333D02*
X148797619Y-144821428D01*
X148178571Y-144250000D02*
X148226190Y-144107142D01*
X148273809Y-144059523D01*
X148369047Y-144011904D01*
X148511904Y-144011904D01*
X148607142Y-144059523D01*
X148654761Y-144107142D01*
X148702380Y-144202380D01*
X148702380Y-144583333D01*
X147702380Y-144583333D01*
X147702380Y-144250000D01*
X147750000Y-144154761D01*
X147797619Y-144107142D01*
X147892857Y-144059523D01*
X147988095Y-144059523D01*
X148083333Y-144107142D01*
X148130952Y-144154761D01*
X148178571Y-144250000D01*
X148178571Y-144583333D01*
X148654761Y-143630952D02*
X148702380Y-143488095D01*
X148702380Y-143250000D01*
X148654761Y-143154761D01*
X148607142Y-143107142D01*
X148511904Y-143059523D01*
X148416666Y-143059523D01*
X148321428Y-143107142D01*
X148273809Y-143154761D01*
X148226190Y-143250000D01*
X148178571Y-143440476D01*
X148130952Y-143535714D01*
X148083333Y-143583333D01*
X147988095Y-143630952D01*
X147892857Y-143630952D01*
X147797619Y-143583333D01*
X147750000Y-143535714D01*
X147702380Y-143440476D01*
X147702380Y-143202380D01*
X147750000Y-143059523D01*
X143059330Y-139821378D02*
X142725997Y-139345188D01*
X142487901Y-139821378D02*
X142487901Y-138821378D01*
X142868854Y-138821378D01*
X142964092Y-138868998D01*
X143011711Y-138916617D01*
X143059330Y-139011855D01*
X143059330Y-139154712D01*
X143011711Y-139249950D01*
X142964092Y-139297569D01*
X142868854Y-139345188D01*
X142487901Y-139345188D01*
X143964092Y-138821378D02*
X143487901Y-138821378D01*
X143440282Y-139297569D01*
X143487901Y-139249950D01*
X143583139Y-139202331D01*
X143821235Y-139202331D01*
X143916473Y-139249950D01*
X143964092Y-139297569D01*
X144011711Y-139392807D01*
X144011711Y-139630902D01*
X143964092Y-139726140D01*
X143916473Y-139773759D01*
X143821235Y-139821378D01*
X143583139Y-139821378D01*
X143487901Y-139773759D01*
X143440282Y-139726140D01*
D11*
X170549523Y-88687619D02*
X171067619Y-88687619D01*
X171128571Y-88657142D01*
X171159047Y-88626666D01*
X171189523Y-88565714D01*
X171189523Y-88443809D01*
X171159047Y-88382857D01*
X171128571Y-88352380D01*
X171067619Y-88321904D01*
X170549523Y-88321904D01*
X171189523Y-87681904D02*
X171189523Y-88047619D01*
X171189523Y-87864761D02*
X170549523Y-87864761D01*
X170640952Y-87925714D01*
X170701904Y-87986666D01*
X170732380Y-88047619D01*
D12*
X150767857Y-140225000D02*
X150803571Y-140260714D01*
X150839285Y-140367857D01*
X150839285Y-140439285D01*
X150803571Y-140546428D01*
X150732142Y-140617857D01*
X150660714Y-140653571D01*
X150517857Y-140689285D01*
X150410714Y-140689285D01*
X150267857Y-140653571D01*
X150196428Y-140617857D01*
X150125000Y-140546428D01*
X150089285Y-140439285D01*
X150089285Y-140367857D01*
X150125000Y-140260714D01*
X150160714Y-140225000D01*
X150089285Y-139975000D02*
X150089285Y-139510714D01*
X150375000Y-139760714D01*
X150375000Y-139653571D01*
X150410714Y-139582142D01*
X150446428Y-139546428D01*
X150517857Y-139510714D01*
X150696428Y-139510714D01*
X150767857Y-139546428D01*
X150803571Y-139582142D01*
X150839285Y-139653571D01*
X150839285Y-139867857D01*
X150803571Y-139939285D01*
X150767857Y-139975000D01*
D13*
X166780952Y-95476190D02*
X166780952Y-94976190D01*
X166900000Y-94976190D01*
X166971428Y-95000000D01*
X167019047Y-95047619D01*
X167042857Y-95095238D01*
X167066666Y-95190476D01*
X167066666Y-95261904D01*
X167042857Y-95357142D01*
X167019047Y-95404761D01*
X166971428Y-95452380D01*
X166900000Y-95476190D01*
X166780952Y-95476190D01*
X167257142Y-95023809D02*
X167280952Y-95000000D01*
X167328571Y-94976190D01*
X167447619Y-94976190D01*
X167495238Y-95000000D01*
X167519047Y-95023809D01*
X167542857Y-95071428D01*
X167542857Y-95119047D01*
X167519047Y-95190476D01*
X167233333Y-95476190D01*
X167542857Y-95476190D01*
D10*
X141491666Y-140652380D02*
X141491666Y-141366666D01*
X141444047Y-141509523D01*
X141348809Y-141604761D01*
X141205952Y-141652380D01*
X141110714Y-141652380D01*
X141872619Y-140652380D02*
X142491666Y-140652380D01*
X142158333Y-141033333D01*
X142301190Y-141033333D01*
X142396428Y-141080952D01*
X142444047Y-141128571D01*
X142491666Y-141223809D01*
X142491666Y-141461904D01*
X142444047Y-141557142D01*
X142396428Y-141604761D01*
X142301190Y-141652380D01*
X142015476Y-141652380D01*
X141920238Y-141604761D01*
X141872619Y-141557142D01*
X167766666Y-81852380D02*
X167766666Y-82566666D01*
X167719047Y-82709523D01*
X167623809Y-82804761D01*
X167480952Y-82852380D01*
X167385714Y-82852380D01*
X168242857Y-82852380D02*
X168242857Y-81852380D01*
X168623809Y-81852380D01*
X168719047Y-81900000D01*
X168766666Y-81947619D01*
X168814285Y-82042857D01*
X168814285Y-82185714D01*
X168766666Y-82280952D01*
X168719047Y-82328571D01*
X168623809Y-82376190D01*
X168242857Y-82376190D01*
X169766666Y-82852380D02*
X169195238Y-82852380D01*
X169480952Y-82852380D02*
X169480952Y-81852380D01*
X169385714Y-81995238D01*
X169290476Y-82090476D01*
X169195238Y-82138095D01*
X161738095Y-132052380D02*
X161738095Y-132861904D01*
X161785714Y-132957142D01*
X161833333Y-133004761D01*
X161928571Y-133052380D01*
X162119047Y-133052380D01*
X162214285Y-133004761D01*
X162261904Y-132957142D01*
X162309523Y-132861904D01*
X162309523Y-132052380D01*
X162690476Y-132052380D02*
X163309523Y-132052380D01*
X162976190Y-132433333D01*
X163119047Y-132433333D01*
X163214285Y-132480952D01*
X163261904Y-132528571D01*
X163309523Y-132623809D01*
X163309523Y-132861904D01*
X163261904Y-132957142D01*
X163214285Y-133004761D01*
X163119047Y-133052380D01*
X162833333Y-133052380D01*
X162738095Y-133004761D01*
X162690476Y-132957142D01*
X164500000Y-135752380D02*
X164500000Y-135990476D01*
X164261904Y-135895238D02*
X164500000Y-135990476D01*
X164738095Y-135895238D01*
X164357142Y-136180952D02*
X164500000Y-135990476D01*
X164642857Y-136180952D01*
X149016548Y-133811904D02*
X149016548Y-134383333D01*
X148978452Y-134497619D01*
X148902262Y-134573809D01*
X148787976Y-134611905D01*
X148711785Y-134611905D01*
X149778453Y-133811904D02*
X149397501Y-133811904D01*
X149359405Y-134192857D01*
X149397501Y-134154761D01*
X149473691Y-134116666D01*
X149664168Y-134116666D01*
X149740358Y-134154761D01*
X149778453Y-134192857D01*
X149816549Y-134269047D01*
X149816549Y-134459524D01*
X149778453Y-134535714D01*
X149740358Y-134573809D01*
X149664168Y-134611905D01*
X149473691Y-134611905D01*
X149397501Y-134573809D01*
X149359405Y-134535714D01*
X169333333Y-144607142D02*
X169285714Y-144654761D01*
X169142857Y-144702380D01*
X169047619Y-144702380D01*
X168904761Y-144654761D01*
X168809523Y-144559523D01*
X168761904Y-144464285D01*
X168714285Y-144273809D01*
X168714285Y-144130952D01*
X168761904Y-143940476D01*
X168809523Y-143845238D01*
X168904761Y-143750000D01*
X169047619Y-143702380D01*
X169142857Y-143702380D01*
X169285714Y-143750000D01*
X169333333Y-143797619D01*
X170238095Y-143702380D02*
X169761904Y-143702380D01*
X169714285Y-144178571D01*
X169761904Y-144130952D01*
X169857142Y-144083333D01*
X170095238Y-144083333D01*
X170190476Y-144130952D01*
X170238095Y-144178571D01*
X170285714Y-144273809D01*
X170285714Y-144511904D01*
X170238095Y-144607142D01*
X170190476Y-144654761D01*
X170095238Y-144702380D01*
X169857142Y-144702380D01*
X169761904Y-144654761D01*
X169714285Y-144607142D01*
X168761904Y-105252380D02*
X168761904Y-104252380D01*
X169000000Y-104252380D01*
X169142857Y-104300000D01*
X169238095Y-104395238D01*
X169285714Y-104490476D01*
X169333333Y-104680952D01*
X169333333Y-104823809D01*
X169285714Y-105014285D01*
X169238095Y-105109523D01*
X169142857Y-105204761D01*
X169000000Y-105252380D01*
X168761904Y-105252380D01*
X170285714Y-105252380D02*
X169714285Y-105252380D01*
X170000000Y-105252380D02*
X170000000Y-104252380D01*
X169904761Y-104395238D01*
X169809523Y-104490476D01*
X169714285Y-104538095D01*
X123866362Y-144051880D02*
X123866362Y-144766818D01*
X123818699Y-144909806D01*
X123723374Y-145005131D01*
X123580387Y-145052793D01*
X123485062Y-145052793D01*
X124867275Y-145052793D02*
X124295325Y-145052793D01*
X124581300Y-145052793D02*
X124581300Y-144051880D01*
X124485975Y-144194868D01*
X124390650Y-144290193D01*
X124295325Y-144337856D01*
X157587142Y-132666666D02*
X157634761Y-132714285D01*
X157682380Y-132857142D01*
X157682380Y-132952380D01*
X157634761Y-133095238D01*
X157539523Y-133190476D01*
X157444285Y-133238095D01*
X157253809Y-133285714D01*
X157110952Y-133285714D01*
X156920476Y-133238095D01*
X156825238Y-133190476D01*
X156730000Y-133095238D01*
X156682380Y-132952380D01*
X156682380Y-132857142D01*
X156730000Y-132714285D01*
X156777619Y-132666666D01*
X156777619Y-132285714D02*
X156730000Y-132238095D01*
X156682380Y-132142857D01*
X156682380Y-131904761D01*
X156730000Y-131809523D01*
X156777619Y-131761904D01*
X156872857Y-131714285D01*
X156968095Y-131714285D01*
X157110952Y-131761904D01*
X157682380Y-132333333D01*
X157682380Y-131714285D01*
X147702380Y-141666666D02*
X147226190Y-142000000D01*
X147702380Y-142238095D02*
X146702380Y-142238095D01*
X146702380Y-141857142D01*
X146750000Y-141761904D01*
X146797619Y-141714285D01*
X146892857Y-141666666D01*
X147035714Y-141666666D01*
X147130952Y-141714285D01*
X147178571Y-141761904D01*
X147226190Y-141857142D01*
X147226190Y-142238095D01*
X146702380Y-140809523D02*
X146702380Y-141000000D01*
X146750000Y-141095238D01*
X146797619Y-141142857D01*
X146940476Y-141238095D01*
X147130952Y-141285714D01*
X147511904Y-141285714D01*
X147607142Y-141238095D01*
X147654761Y-141190476D01*
X147702380Y-141095238D01*
X147702380Y-140904761D01*
X147654761Y-140809523D01*
X147607142Y-140761904D01*
X147511904Y-140714285D01*
X147273809Y-140714285D01*
X147178571Y-140761904D01*
X147130952Y-140809523D01*
X147083333Y-140904761D01*
X147083333Y-141095238D01*
X147130952Y-141190476D01*
X147178571Y-141238095D01*
X147273809Y-141285714D01*
X159283333Y-133252380D02*
X158950000Y-132776190D01*
X158711904Y-133252380D02*
X158711904Y-132252380D01*
X159092857Y-132252380D01*
X159188095Y-132300000D01*
X159235714Y-132347619D01*
X159283333Y-132442857D01*
X159283333Y-132585714D01*
X159235714Y-132680952D01*
X159188095Y-132728571D01*
X159092857Y-132776190D01*
X158711904Y-132776190D01*
X159759523Y-133252380D02*
X159950000Y-133252380D01*
X160045238Y-133204761D01*
X160092857Y-133157142D01*
X160188095Y-133014285D01*
X160235714Y-132823809D01*
X160235714Y-132442857D01*
X160188095Y-132347619D01*
X160140476Y-132300000D01*
X160045238Y-132252380D01*
X159854761Y-132252380D01*
X159759523Y-132300000D01*
X159711904Y-132347619D01*
X159664285Y-132442857D01*
X159664285Y-132680952D01*
X159711904Y-132776190D01*
X159759523Y-132823809D01*
X159854761Y-132871428D01*
X160045238Y-132871428D01*
X160140476Y-132823809D01*
X160188095Y-132776190D01*
X160235714Y-132680952D01*
X124433333Y-135352380D02*
X124100000Y-134876190D01*
X123861904Y-135352380D02*
X123861904Y-134352380D01*
X124242857Y-134352380D01*
X124338095Y-134400000D01*
X124385714Y-134447619D01*
X124433333Y-134542857D01*
X124433333Y-134685714D01*
X124385714Y-134780952D01*
X124338095Y-134828571D01*
X124242857Y-134876190D01*
X123861904Y-134876190D01*
X125290476Y-134685714D02*
X125290476Y-135352380D01*
X125052380Y-134304761D02*
X124814285Y-135019047D01*
X125433333Y-135019047D01*
X167652380Y-90966666D02*
X167176190Y-91300000D01*
X167652380Y-91538095D02*
X166652380Y-91538095D01*
X166652380Y-91157142D01*
X166700000Y-91061904D01*
X166747619Y-91014285D01*
X166842857Y-90966666D01*
X166985714Y-90966666D01*
X167080952Y-91014285D01*
X167128571Y-91061904D01*
X167176190Y-91157142D01*
X167176190Y-91538095D01*
X166747619Y-90585714D02*
X166700000Y-90538095D01*
X166652380Y-90442857D01*
X166652380Y-90204761D01*
X166700000Y-90109523D01*
X166747619Y-90061904D01*
X166842857Y-90014285D01*
X166938095Y-90014285D01*
X167080952Y-90061904D01*
X167652380Y-90633333D01*
X167652380Y-90014285D01*
X166533333Y-133452380D02*
X166200000Y-132976190D01*
X165961904Y-133452380D02*
X165961904Y-132452380D01*
X166342857Y-132452380D01*
X166438095Y-132500000D01*
X166485714Y-132547619D01*
X166533333Y-132642857D01*
X166533333Y-132785714D01*
X166485714Y-132880952D01*
X166438095Y-132928571D01*
X166342857Y-132976190D01*
X165961904Y-132976190D01*
X167104761Y-132880952D02*
X167009523Y-132833333D01*
X166961904Y-132785714D01*
X166914285Y-132690476D01*
X166914285Y-132642857D01*
X166961904Y-132547619D01*
X167009523Y-132500000D01*
X167104761Y-132452380D01*
X167295238Y-132452380D01*
X167390476Y-132500000D01*
X167438095Y-132547619D01*
X167485714Y-132642857D01*
X167485714Y-132690476D01*
X167438095Y-132785714D01*
X167390476Y-132833333D01*
X167295238Y-132880952D01*
X167104761Y-132880952D01*
X167009523Y-132928571D01*
X166961904Y-132976190D01*
X166914285Y-133071428D01*
X166914285Y-133261904D01*
X166961904Y-133357142D01*
X167009523Y-133404761D01*
X167104761Y-133452380D01*
X167295238Y-133452380D01*
X167390476Y-133404761D01*
X167438095Y-133357142D01*
X167485714Y-133261904D01*
X167485714Y-133071428D01*
X167438095Y-132976190D01*
X167390476Y-132928571D01*
X167295238Y-132880952D01*
X142989332Y-135205542D02*
X142941713Y-135253161D01*
X142798856Y-135300780D01*
X142703618Y-135300780D01*
X142560760Y-135253161D01*
X142465522Y-135157923D01*
X142417903Y-135062685D01*
X142370284Y-134872209D01*
X142370284Y-134729352D01*
X142417903Y-134538876D01*
X142465522Y-134443638D01*
X142560760Y-134348400D01*
X142703618Y-134300780D01*
X142798856Y-134300780D01*
X142941713Y-134348400D01*
X142989332Y-134396019D01*
X143846475Y-134634114D02*
X143846475Y-135300780D01*
X143608379Y-134253161D02*
X143370284Y-134967447D01*
X143989332Y-134967447D01*
X123333333Y-140352380D02*
X123000000Y-139876190D01*
X122761904Y-140352380D02*
X122761904Y-139352380D01*
X123142857Y-139352380D01*
X123238095Y-139400000D01*
X123285714Y-139447619D01*
X123333333Y-139542857D01*
X123333333Y-139685714D01*
X123285714Y-139780952D01*
X123238095Y-139828571D01*
X123142857Y-139876190D01*
X122761904Y-139876190D01*
X123666666Y-139352380D02*
X124285714Y-139352380D01*
X123952380Y-139733333D01*
X124095238Y-139733333D01*
X124190476Y-139780952D01*
X124238095Y-139828571D01*
X124285714Y-139923809D01*
X124285714Y-140161904D01*
X124238095Y-140257142D01*
X124190476Y-140304761D01*
X124095238Y-140352380D01*
X123809523Y-140352380D01*
X123714285Y-140304761D01*
X123666666Y-140257142D01*
X166271428Y-102100000D02*
X165985714Y-102300000D01*
X166271428Y-102442857D02*
X165671428Y-102442857D01*
X165671428Y-102214285D01*
X165700000Y-102157142D01*
X165728571Y-102128571D01*
X165785714Y-102100000D01*
X165871428Y-102100000D01*
X165928571Y-102128571D01*
X165957142Y-102157142D01*
X165985714Y-102214285D01*
X165985714Y-102442857D01*
X166271428Y-101528571D02*
X166271428Y-101871428D01*
X166271428Y-101700000D02*
X165671428Y-101700000D01*
X165757142Y-101757142D01*
X165814285Y-101814285D01*
X165842857Y-101871428D01*
X143059330Y-137535378D02*
X142583139Y-137535378D01*
X142583139Y-136535378D01*
X143916473Y-137535378D02*
X143345044Y-137535378D01*
X143630758Y-137535378D02*
X143630758Y-136535378D01*
X143535520Y-136678236D01*
X143440282Y-136773474D01*
X143345044Y-136821093D01*
D12*
X150939285Y-142225000D02*
X150582142Y-142475000D01*
X150939285Y-142653571D02*
X150189285Y-142653571D01*
X150189285Y-142367857D01*
X150225000Y-142296428D01*
X150260714Y-142260714D01*
X150332142Y-142225000D01*
X150439285Y-142225000D01*
X150510714Y-142260714D01*
X150546428Y-142296428D01*
X150582142Y-142367857D01*
X150582142Y-142653571D01*
X150189285Y-141975000D02*
X150189285Y-141475000D01*
X150939285Y-141796428D01*
D10*
X155567142Y-132666666D02*
X155614761Y-132714285D01*
X155662380Y-132857142D01*
X155662380Y-132952380D01*
X155614761Y-133095238D01*
X155519523Y-133190476D01*
X155424285Y-133238095D01*
X155233809Y-133285714D01*
X155090952Y-133285714D01*
X154900476Y-133238095D01*
X154805238Y-133190476D01*
X154710000Y-133095238D01*
X154662380Y-132952380D01*
X154662380Y-132857142D01*
X154710000Y-132714285D01*
X154757619Y-132666666D01*
X155662380Y-131714285D02*
X155662380Y-132285714D01*
X155662380Y-132000000D02*
X154662380Y-132000000D01*
X154805238Y-132095238D01*
X154900476Y-132190476D01*
X154948095Y-132285714D01*
X165602261Y-144447619D02*
X165507023Y-144400000D01*
X165411785Y-144304761D01*
X165268928Y-144161904D01*
X165173690Y-144114285D01*
X165078452Y-144114285D01*
X165126071Y-144352380D02*
X165030833Y-144304761D01*
X164935595Y-144209523D01*
X164887976Y-144019047D01*
X164887976Y-143685714D01*
X164935595Y-143495238D01*
X165030833Y-143400000D01*
X165126071Y-143352380D01*
X165316547Y-143352380D01*
X165411785Y-143400000D01*
X165507023Y-143495238D01*
X165554642Y-143685714D01*
X165554642Y-144019047D01*
X165507023Y-144209523D01*
X165411785Y-144304761D01*
X165316547Y-144352380D01*
X165126071Y-144352380D01*
X166507023Y-144352380D02*
X165935595Y-144352380D01*
X166221309Y-144352380D02*
X166221309Y-143352380D01*
X166126071Y-143495238D01*
X166030833Y-143590476D01*
X165935595Y-143638095D01*
X167152380Y-126233333D02*
X167866666Y-126233333D01*
X168009523Y-126280952D01*
X168104761Y-126376190D01*
X168152380Y-126519047D01*
X168152380Y-126614285D01*
X167247619Y-125804761D02*
X167200000Y-125757142D01*
X167152380Y-125661904D01*
X167152380Y-125423809D01*
X167200000Y-125328571D01*
X167247619Y-125280952D01*
X167342857Y-125233333D01*
X167438095Y-125233333D01*
X167580952Y-125280952D01*
X168152380Y-125852380D01*
X168152380Y-125233333D01*
X131938095Y-139152380D02*
X131938095Y-139961904D01*
X131985714Y-140057142D01*
X132033333Y-140104761D01*
X132128571Y-140152380D01*
X132319047Y-140152380D01*
X132414285Y-140104761D01*
X132461904Y-140057142D01*
X132509523Y-139961904D01*
X132509523Y-139152380D01*
X132938095Y-139247619D02*
X132985714Y-139200000D01*
X133080952Y-139152380D01*
X133319047Y-139152380D01*
X133414285Y-139200000D01*
X133461904Y-139247619D01*
X133509523Y-139342857D01*
X133509523Y-139438095D01*
X133461904Y-139580952D01*
X132890476Y-140152380D01*
X133509523Y-140152380D01*
D12*
X145792933Y-138532398D02*
X146247061Y-138532398D01*
X145792933Y-140002398D02*
X146247061Y-140002398D01*
D14*
X170170000Y-87707500D02*
X170170000Y-88957500D01*
X167830000Y-88957500D02*
X167830000Y-87707500D01*
D15*
X169750000Y-86232500D02*
G75*
G03*
X169750000Y-86232500I-100000J0D01*
G01*
D12*
X152961252Y-139365000D02*
X152438748Y-139365000D01*
X152961252Y-140835000D02*
X152438748Y-140835000D01*
X170600000Y-94540000D02*
X167915000Y-94540000D01*
X167915000Y-96460000D02*
X170600000Y-96460000D01*
X167915000Y-94540000D02*
X167915000Y-96460000D01*
X136910000Y-147860000D02*
X145340000Y-147860000D01*
X137440000Y-143590000D02*
X137440000Y-142600000D01*
X146610000Y-143590000D02*
X144810000Y-143590000D01*
X146610000Y-145040000D02*
X146610000Y-143590000D01*
X135640000Y-145040000D02*
X135640000Y-143590000D01*
X135640000Y-143590000D02*
X137440000Y-143590000D01*
X167200000Y-84650000D02*
X167200000Y-84050000D01*
X170000000Y-84050000D02*
X170000000Y-84650000D01*
X167900000Y-83350000D02*
X169300000Y-83350000D01*
X169300000Y-85350000D02*
X167900000Y-85350000D01*
X167900000Y-85350000D02*
G75*
G02*
X167200000Y-84650000I0J700000D01*
G01*
X170000000Y-84650000D02*
G75*
G02*
X169300000Y-85350000I-700000J0D01*
G01*
X169300000Y-83350000D02*
G75*
G02*
X170000000Y-84050000I0J-700000D01*
G01*
X167200000Y-84050000D02*
G75*
G02*
X167900000Y-83350000I700000J0D01*
G01*
D10*
X152289999Y-135274999D02*
X152574997Y-135274999D01*
X152574997Y-138424998D02*
X152574997Y-138140000D01*
X149424998Y-138424998D02*
X149709999Y-138424998D01*
X149424998Y-135560000D02*
X149424998Y-135274999D01*
X149424998Y-135274999D02*
X149709999Y-135274999D01*
X152574997Y-135560000D02*
X152574997Y-135274999D01*
X149424998Y-138424998D02*
X149424998Y-138140000D01*
X152289999Y-138424998D02*
X152574997Y-138424998D01*
D16*
X148899998Y-135424999D02*
G75*
G03*
X148899998Y-135424999I-125001J0D01*
G01*
D12*
X168238748Y-145265000D02*
X168761252Y-145265000D01*
X168238748Y-146735000D02*
X168761252Y-146735000D01*
X168640000Y-101412500D02*
X168640000Y-104097500D01*
X168640000Y-104097500D02*
X170560000Y-104097500D01*
X170560000Y-104097500D02*
X170560000Y-101412500D01*
D14*
X133468250Y-144892500D02*
X133468250Y-143312500D01*
X125968250Y-143312500D02*
X126239250Y-143312500D01*
X133468250Y-147612500D02*
X133468250Y-147432500D01*
X125968250Y-144892500D02*
X125968250Y-143312500D01*
X125968250Y-147612500D02*
X133468250Y-147612500D01*
X133468250Y-143312500D02*
X133197250Y-143312500D01*
X125968250Y-147432500D02*
X125968250Y-147612500D01*
D17*
X128518250Y-142262500D02*
G75*
G03*
X128518250Y-142262500I-100000J0D01*
G01*
D12*
X157985000Y-135761252D02*
X157985000Y-135238748D01*
X156515000Y-135761252D02*
X156515000Y-135238748D01*
X149635000Y-141727064D02*
X149635000Y-141272936D01*
X148165000Y-141727064D02*
X148165000Y-141272936D01*
X159922936Y-134365000D02*
X160377064Y-134365000D01*
X159922936Y-135835000D02*
X160377064Y-135835000D01*
X158450000Y-142450000D02*
X155050000Y-142450000D01*
X158450000Y-139050000D02*
X158450000Y-142450000D01*
X155050000Y-142450000D02*
X155050000Y-139050000D01*
X155050000Y-139050000D02*
X158450000Y-139050000D01*
X124827064Y-135877500D02*
X124372936Y-135877500D01*
X124827064Y-137347500D02*
X124372936Y-137347500D01*
X168427064Y-92365000D02*
X167972936Y-92365000D01*
X168427064Y-93835000D02*
X167972936Y-93835000D01*
X157300000Y-148200000D02*
X157300000Y-143800000D01*
X157300000Y-143800000D02*
X163700000Y-143800000D01*
X163700000Y-143800000D02*
X163700000Y-148200000D01*
X163700000Y-148200000D02*
X157300000Y-148200000D01*
X155700000Y-148200000D02*
X149300000Y-148200000D01*
X149300000Y-148200000D02*
X149300000Y-143800000D01*
X155700000Y-143800000D02*
X155700000Y-148200000D01*
X149300000Y-143800000D02*
X155700000Y-143800000D01*
X165872936Y-135835000D02*
X166327064Y-135835000D01*
X165872936Y-134365000D02*
X166327064Y-134365000D01*
X145688747Y-135685000D02*
X146211251Y-135685000D01*
X145688747Y-134215000D02*
X146211251Y-134215000D01*
X124765000Y-140139564D02*
X124765000Y-139685436D01*
X126235000Y-140139564D02*
X126235000Y-139685436D01*
X168335000Y-102185436D02*
X168335000Y-102639564D01*
X166865000Y-102185436D02*
X166865000Y-102639564D01*
X146423919Y-136421398D02*
X145624675Y-136421398D01*
X146423919Y-137541398D02*
X145624675Y-137541398D01*
X152522936Y-142985000D02*
X152977064Y-142985000D01*
X152522936Y-141515000D02*
X152977064Y-141515000D01*
X155915000Y-135761252D02*
X155915000Y-135238748D01*
X154445000Y-135761252D02*
X154445000Y-135238748D01*
D10*
X169140000Y-143025000D02*
X169140000Y-143075000D01*
X162920000Y-143075000D02*
X169140000Y-143075000D01*
X162920000Y-136425000D02*
X169140000Y-136425000D01*
X169140000Y-136425000D02*
X169140000Y-136475000D01*
X162920000Y-136425000D02*
X162920000Y-143075000D01*
D12*
X168420000Y-117845000D02*
X171080000Y-117845000D01*
X168420000Y-117845000D02*
X168420000Y-135685000D01*
X168420000Y-116575000D02*
X168420000Y-115245000D01*
X168420000Y-135685000D02*
X171080000Y-135685000D01*
X168420000Y-115245000D02*
X169750000Y-115245000D01*
X171080000Y-117845000D02*
X171080000Y-135685000D01*
X130150000Y-139200000D02*
X130150000Y-139750000D01*
X128850000Y-139200000D02*
X128850000Y-139750000D01*
X130150000Y-139750000D02*
X129950000Y-139750000D01*
X128850000Y-139750000D02*
X129050000Y-139750000D01*
X131430000Y-114900000D02*
X131430000Y-113900000D01*
X127650000Y-92100000D02*
X127650000Y-93100000D01*
X161570000Y-92100000D02*
X161570000Y-93100000D01*
X165350000Y-92100000D02*
X165350000Y-93100000D01*
X166500000Y-130000000D02*
X166500000Y-82000000D01*
X131430000Y-114900000D02*
X127650000Y-114900000D01*
X165350000Y-114900000D02*
X161570000Y-114900000D01*
X131430000Y-92100000D02*
X131430000Y-93100000D01*
X127650000Y-114900000D02*
X127650000Y-113900000D01*
X131430000Y-92100000D02*
X127650000Y-92100000D01*
X126500000Y-82000000D02*
X126500000Y-130000000D01*
X165350000Y-92100000D02*
X161570000Y-92100000D01*
X163000000Y-78500000D02*
X130000000Y-78500000D01*
X130000000Y-133500000D02*
X163000000Y-133500000D01*
X126500000Y-82000000D02*
G75*
G02*
X130000000Y-78500000I3500000J0D01*
G01*
X166500000Y-130000000D02*
G75*
G02*
X163000000Y-133500000I-3500000J0D01*
G01*
X163000000Y-78500000D02*
G75*
G02*
X166500000Y-82000000I0J-3500000D01*
G01*
X130000000Y-133500000D02*
G75*
G02*
X126500000Y-130000000I0J3500000D01*
G01*
M02*
