G04 #@! TF.GenerationSoftware,KiCad,Pcbnew,(5.99.0-9568-gb9d26a55f2)*
G04 #@! TF.CreationDate,2021-03-17T08:28:42+01:00*
G04 #@! TF.ProjectId,rpi_cm4_drone_carrier_v01,7270695f-636d-4345-9f64-726f6e655f63,v01*
G04 #@! TF.SameCoordinates,Original*
G04 #@! TF.FileFunction,Legend,Bot*
G04 #@! TF.FilePolarity,Positive*
%FSLAX46Y46*%
G04 Gerber Fmt 4.6, Leading zero omitted, Abs format (unit mm)*
G04 Created by KiCad (PCBNEW (5.99.0-9568-gb9d26a55f2)) date 2021-03-17 08:28:42*
%MOMM*%
%LPD*%
G01*
G04 APERTURE LIST*
%ADD10C,0.300000*%
%ADD11C,0.150000*%
%ADD12C,0.120000*%
G04 APERTURE END LIST*
D10*
X151214285Y-105294761D02*
X151880952Y-104342380D01*
X152357142Y-105294761D02*
X152357142Y-103294761D01*
X151595238Y-103294761D01*
X151404761Y-103390000D01*
X151309523Y-103485238D01*
X151214285Y-103675714D01*
X151214285Y-103961428D01*
X151309523Y-104151904D01*
X151404761Y-104247142D01*
X151595238Y-104342380D01*
X152357142Y-104342380D01*
X150357142Y-105294761D02*
X150357142Y-103294761D01*
X149595238Y-103294761D01*
X149404761Y-103390000D01*
X149309523Y-103485238D01*
X149214285Y-103675714D01*
X149214285Y-103961428D01*
X149309523Y-104151904D01*
X149404761Y-104247142D01*
X149595238Y-104342380D01*
X150357142Y-104342380D01*
X148357142Y-105294761D02*
X148357142Y-103961428D01*
X148357142Y-103294761D02*
X148452380Y-103390000D01*
X148357142Y-103485238D01*
X148261904Y-103390000D01*
X148357142Y-103294761D01*
X148357142Y-103485238D01*
X144738095Y-105104285D02*
X144833333Y-105199523D01*
X145119047Y-105294761D01*
X145309523Y-105294761D01*
X145595238Y-105199523D01*
X145785714Y-105009047D01*
X145880952Y-104818571D01*
X145976190Y-104437619D01*
X145976190Y-104151904D01*
X145880952Y-103770952D01*
X145785714Y-103580476D01*
X145595238Y-103390000D01*
X145309523Y-103294761D01*
X145119047Y-103294761D01*
X144833333Y-103390000D01*
X144738095Y-103485238D01*
X143880952Y-105294761D02*
X143880952Y-103294761D01*
X143214285Y-104723333D01*
X142547619Y-103294761D01*
X142547619Y-105294761D01*
X140738095Y-103961428D02*
X140738095Y-105294761D01*
X141214285Y-103199523D02*
X141690476Y-104628095D01*
X140452380Y-104628095D01*
X161261904Y-108514761D02*
X161261904Y-106514761D01*
X160785714Y-106514761D01*
X160500000Y-106610000D01*
X160309523Y-106800476D01*
X160214285Y-106990952D01*
X160119047Y-107371904D01*
X160119047Y-107657619D01*
X160214285Y-108038571D01*
X160309523Y-108229047D01*
X160500000Y-108419523D01*
X160785714Y-108514761D01*
X161261904Y-108514761D01*
X159261904Y-108514761D02*
X159261904Y-107181428D01*
X159261904Y-107562380D02*
X159166666Y-107371904D01*
X159071428Y-107276666D01*
X158880952Y-107181428D01*
X158690476Y-107181428D01*
X157738095Y-108514761D02*
X157928571Y-108419523D01*
X158023809Y-108324285D01*
X158119047Y-108133809D01*
X158119047Y-107562380D01*
X158023809Y-107371904D01*
X157928571Y-107276666D01*
X157738095Y-107181428D01*
X157452380Y-107181428D01*
X157261904Y-107276666D01*
X157166666Y-107371904D01*
X157071428Y-107562380D01*
X157071428Y-108133809D01*
X157166666Y-108324285D01*
X157261904Y-108419523D01*
X157452380Y-108514761D01*
X157738095Y-108514761D01*
X156214285Y-107181428D02*
X156214285Y-108514761D01*
X156214285Y-107371904D02*
X156119047Y-107276666D01*
X155928571Y-107181428D01*
X155642857Y-107181428D01*
X155452380Y-107276666D01*
X155357142Y-107467142D01*
X155357142Y-108514761D01*
X153642857Y-108419523D02*
X153833333Y-108514761D01*
X154214285Y-108514761D01*
X154404761Y-108419523D01*
X154500000Y-108229047D01*
X154500000Y-107467142D01*
X154404761Y-107276666D01*
X154214285Y-107181428D01*
X153833333Y-107181428D01*
X153642857Y-107276666D01*
X153547619Y-107467142D01*
X153547619Y-107657619D01*
X154500000Y-107848095D01*
X150023809Y-108324285D02*
X150119047Y-108419523D01*
X150404761Y-108514761D01*
X150595238Y-108514761D01*
X150880952Y-108419523D01*
X151071428Y-108229047D01*
X151166666Y-108038571D01*
X151261904Y-107657619D01*
X151261904Y-107371904D01*
X151166666Y-106990952D01*
X151071428Y-106800476D01*
X150880952Y-106610000D01*
X150595238Y-106514761D01*
X150404761Y-106514761D01*
X150119047Y-106610000D01*
X150023809Y-106705238D01*
X148309523Y-108514761D02*
X148309523Y-107467142D01*
X148404761Y-107276666D01*
X148595238Y-107181428D01*
X148976190Y-107181428D01*
X149166666Y-107276666D01*
X148309523Y-108419523D02*
X148500000Y-108514761D01*
X148976190Y-108514761D01*
X149166666Y-108419523D01*
X149261904Y-108229047D01*
X149261904Y-108038571D01*
X149166666Y-107848095D01*
X148976190Y-107752857D01*
X148500000Y-107752857D01*
X148309523Y-107657619D01*
X147357142Y-108514761D02*
X147357142Y-107181428D01*
X147357142Y-107562380D02*
X147261904Y-107371904D01*
X147166666Y-107276666D01*
X146976190Y-107181428D01*
X146785714Y-107181428D01*
X146119047Y-108514761D02*
X146119047Y-107181428D01*
X146119047Y-107562380D02*
X146023809Y-107371904D01*
X145928571Y-107276666D01*
X145738095Y-107181428D01*
X145547619Y-107181428D01*
X144880952Y-108514761D02*
X144880952Y-107181428D01*
X144880952Y-106514761D02*
X144976190Y-106610000D01*
X144880952Y-106705238D01*
X144785714Y-106610000D01*
X144880952Y-106514761D01*
X144880952Y-106705238D01*
X143166666Y-108419523D02*
X143357142Y-108514761D01*
X143738095Y-108514761D01*
X143928571Y-108419523D01*
X144023809Y-108229047D01*
X144023809Y-107467142D01*
X143928571Y-107276666D01*
X143738095Y-107181428D01*
X143357142Y-107181428D01*
X143166666Y-107276666D01*
X143071428Y-107467142D01*
X143071428Y-107657619D01*
X144023809Y-107848095D01*
X142214285Y-108514761D02*
X142214285Y-107181428D01*
X142214285Y-107562380D02*
X142119047Y-107371904D01*
X142023809Y-107276666D01*
X141833333Y-107181428D01*
X141642857Y-107181428D01*
X138785714Y-107467142D02*
X138500000Y-107562380D01*
X138404761Y-107657619D01*
X138309523Y-107848095D01*
X138309523Y-108133809D01*
X138404761Y-108324285D01*
X138500000Y-108419523D01*
X138690476Y-108514761D01*
X139452380Y-108514761D01*
X139452380Y-106514761D01*
X138785714Y-106514761D01*
X138595238Y-106610000D01*
X138500000Y-106705238D01*
X138404761Y-106895714D01*
X138404761Y-107086190D01*
X138500000Y-107276666D01*
X138595238Y-107371904D01*
X138785714Y-107467142D01*
X139452380Y-107467142D01*
X137166666Y-108514761D02*
X137357142Y-108419523D01*
X137452380Y-108324285D01*
X137547619Y-108133809D01*
X137547619Y-107562380D01*
X137452380Y-107371904D01*
X137357142Y-107276666D01*
X137166666Y-107181428D01*
X136880952Y-107181428D01*
X136690476Y-107276666D01*
X136595238Y-107371904D01*
X136500000Y-107562380D01*
X136500000Y-108133809D01*
X136595238Y-108324285D01*
X136690476Y-108419523D01*
X136880952Y-108514761D01*
X137166666Y-108514761D01*
X134785714Y-108514761D02*
X134785714Y-107467142D01*
X134880952Y-107276666D01*
X135071428Y-107181428D01*
X135452380Y-107181428D01*
X135642857Y-107276666D01*
X134785714Y-108419523D02*
X134976190Y-108514761D01*
X135452380Y-108514761D01*
X135642857Y-108419523D01*
X135738095Y-108229047D01*
X135738095Y-108038571D01*
X135642857Y-107848095D01*
X135452380Y-107752857D01*
X134976190Y-107752857D01*
X134785714Y-107657619D01*
X133833333Y-108514761D02*
X133833333Y-107181428D01*
X133833333Y-107562380D02*
X133738095Y-107371904D01*
X133642857Y-107276666D01*
X133452380Y-107181428D01*
X133261904Y-107181428D01*
X131738095Y-108514761D02*
X131738095Y-106514761D01*
X131738095Y-108419523D02*
X131928571Y-108514761D01*
X132309523Y-108514761D01*
X132500000Y-108419523D01*
X132595238Y-108324285D01*
X132690476Y-108133809D01*
X132690476Y-107562380D01*
X132595238Y-107371904D01*
X132500000Y-107276666D01*
X132309523Y-107181428D01*
X131928571Y-107181428D01*
X131738095Y-107276666D01*
D11*
X159690476Y-79285714D02*
X159452380Y-79952380D01*
X159214285Y-79285714D01*
X158642857Y-78952380D02*
X158547619Y-78952380D01*
X158452380Y-79000000D01*
X158404761Y-79047619D01*
X158357142Y-79142857D01*
X158309523Y-79333333D01*
X158309523Y-79571428D01*
X158357142Y-79761904D01*
X158404761Y-79857142D01*
X158452380Y-79904761D01*
X158547619Y-79952380D01*
X158642857Y-79952380D01*
X158738095Y-79904761D01*
X158785714Y-79857142D01*
X158833333Y-79761904D01*
X158880952Y-79571428D01*
X158880952Y-79333333D01*
X158833333Y-79142857D01*
X158785714Y-79047619D01*
X158738095Y-79000000D01*
X158642857Y-78952380D01*
X157357142Y-79952380D02*
X157928571Y-79952380D01*
X157642857Y-79952380D02*
X157642857Y-78952380D01*
X157738095Y-79095238D01*
X157833333Y-79190476D01*
X157928571Y-79238095D01*
X150452380Y-143250000D02*
X150357142Y-143297619D01*
X150214285Y-143297619D01*
X150071428Y-143250000D01*
X149976190Y-143154761D01*
X149928571Y-143059523D01*
X149880952Y-142869047D01*
X149880952Y-142726190D01*
X149928571Y-142535714D01*
X149976190Y-142440476D01*
X150071428Y-142345238D01*
X150214285Y-142297619D01*
X150309523Y-142297619D01*
X150452380Y-142345238D01*
X150500000Y-142392857D01*
X150500000Y-142726190D01*
X150309523Y-142726190D01*
X150928571Y-142297619D02*
X150928571Y-143297619D01*
X151500000Y-142297619D01*
X151500000Y-143297619D01*
X151976190Y-142297619D02*
X151976190Y-143297619D01*
X152214285Y-143297619D01*
X152357142Y-143250000D01*
X152452380Y-143154761D01*
X152500000Y-143059523D01*
X152547619Y-142869047D01*
X152547619Y-142726190D01*
X152500000Y-142535714D01*
X152452380Y-142440476D01*
X152357142Y-142345238D01*
X152214285Y-142297619D01*
X151976190Y-142297619D01*
X152738095Y-142202380D02*
X153500000Y-142202380D01*
X153690476Y-142583333D02*
X154166666Y-142583333D01*
X153595238Y-142297619D02*
X153928571Y-143297619D01*
X154261904Y-142297619D01*
X154547619Y-142345238D02*
X154690476Y-142297619D01*
X154928571Y-142297619D01*
X155023809Y-142345238D01*
X155071428Y-142392857D01*
X155119047Y-142488095D01*
X155119047Y-142583333D01*
X155071428Y-142678571D01*
X155023809Y-142726190D01*
X154928571Y-142773809D01*
X154738095Y-142821428D01*
X154642857Y-142869047D01*
X154595238Y-142916666D01*
X154547619Y-143011904D01*
X154547619Y-143107142D01*
X154595238Y-143202380D01*
X154642857Y-143250000D01*
X154738095Y-143297619D01*
X154976190Y-143297619D01*
X155119047Y-143250000D01*
X158130952Y-143047619D02*
X158464285Y-142047619D01*
X158797619Y-143047619D01*
X159702380Y-142142857D02*
X159654761Y-142095238D01*
X159511904Y-142047619D01*
X159416666Y-142047619D01*
X159273809Y-142095238D01*
X159178571Y-142190476D01*
X159130952Y-142285714D01*
X159083333Y-142476190D01*
X159083333Y-142619047D01*
X159130952Y-142809523D01*
X159178571Y-142904761D01*
X159273809Y-143000000D01*
X159416666Y-143047619D01*
X159511904Y-143047619D01*
X159654761Y-143000000D01*
X159702380Y-142952380D01*
X160702380Y-142142857D02*
X160654761Y-142095238D01*
X160511904Y-142047619D01*
X160416666Y-142047619D01*
X160273809Y-142095238D01*
X160178571Y-142190476D01*
X160130952Y-142285714D01*
X160083333Y-142476190D01*
X160083333Y-142619047D01*
X160130952Y-142809523D01*
X160178571Y-142904761D01*
X160273809Y-143000000D01*
X160416666Y-143047619D01*
X160511904Y-143047619D01*
X160654761Y-143000000D01*
X160702380Y-142952380D01*
X160892857Y-141952380D02*
X161654761Y-141952380D01*
X161845238Y-142333333D02*
X162321428Y-142333333D01*
X161750000Y-142047619D02*
X162083333Y-143047619D01*
X162416666Y-142047619D01*
X162702380Y-142095238D02*
X162845238Y-142047619D01*
X163083333Y-142047619D01*
X163178571Y-142095238D01*
X163226190Y-142142857D01*
X163273809Y-142238095D01*
X163273809Y-142333333D01*
X163226190Y-142428571D01*
X163178571Y-142476190D01*
X163083333Y-142523809D01*
X162892857Y-142571428D01*
X162797619Y-142619047D01*
X162750000Y-142666666D01*
X162702380Y-142761904D01*
X162702380Y-142857142D01*
X162750000Y-142952380D01*
X162797619Y-143000000D01*
X162892857Y-143047619D01*
X163130952Y-143047619D01*
X163273809Y-143000000D01*
D12*
X149300000Y-148200000D02*
X155700000Y-148200000D01*
X155700000Y-143800000D02*
X149300000Y-143800000D01*
X149300000Y-143800000D02*
X149300000Y-148200000D01*
X155700000Y-148200000D02*
X155700000Y-143800000D01*
X157750000Y-143800000D02*
X157750000Y-148200000D01*
X157750000Y-148200000D02*
X164150000Y-148200000D01*
X164150000Y-143800000D02*
X157750000Y-143800000D01*
X164150000Y-148200000D02*
X164150000Y-143800000D01*
M02*
