G04 #@! TF.GenerationSoftware,KiCad,Pcbnew,(5.99.0-9568-gb9d26a55f2)*
G04 #@! TF.CreationDate,2021-03-17T08:28:42+01:00*
G04 #@! TF.ProjectId,rpi_cm4_drone_carrier_v01,7270695f-636d-4345-9f64-726f6e655f63,v01*
G04 #@! TF.SameCoordinates,Original*
G04 #@! TF.FileFunction,Copper,L2,Bot*
G04 #@! TF.FilePolarity,Positive*
%FSLAX46Y46*%
G04 Gerber Fmt 4.6, Leading zero omitted, Abs format (unit mm)*
G04 Created by KiCad (PCBNEW (5.99.0-9568-gb9d26a55f2)) date 2021-03-17 08:28:42*
%MOMM*%
%LPD*%
G01*
G04 APERTURE LIST*
G04 #@! TA.AperFunction,ComponentPad*
%ADD10C,0.499999*%
G04 #@! TD*
G04 #@! TA.AperFunction,ComponentPad*
%ADD11O,0.950000X1.900000*%
G04 #@! TD*
G04 #@! TA.AperFunction,ComponentPad*
%ADD12C,1.450000*%
G04 #@! TD*
G04 #@! TA.AperFunction,ComponentPad*
%ADD13R,1.700000X1.700000*%
G04 #@! TD*
G04 #@! TA.AperFunction,ComponentPad*
%ADD14O,1.700000X1.700000*%
G04 #@! TD*
G04 #@! TA.AperFunction,SMDPad,CuDef*
%ADD15R,6.000000X4.000000*%
G04 #@! TD*
G04 #@! TA.AperFunction,ViaPad*
%ADD16C,0.508000*%
G04 #@! TD*
G04 #@! TA.AperFunction,ViaPad*
%ADD17C,2.300000*%
G04 #@! TD*
G04 #@! TA.AperFunction,ViaPad*
%ADD18C,0.750000*%
G04 #@! TD*
G04 #@! TA.AperFunction,Conductor*
%ADD19C,1.400000*%
G04 #@! TD*
G04 #@! TA.AperFunction,Conductor*
%ADD20C,0.300000*%
G04 #@! TD*
G04 #@! TA.AperFunction,Conductor*
%ADD21C,0.200000*%
G04 #@! TD*
G04 APERTURE END LIST*
D10*
X151499998Y-137349999D03*
X151499998Y-136350001D03*
X150500000Y-136350001D03*
X150500000Y-137349999D03*
X150999999Y-136850000D03*
D11*
X126218250Y-146162500D03*
X133218250Y-146162500D03*
D12*
X127218250Y-143462500D03*
X132218250Y-143462500D03*
D13*
X169750000Y-116575000D03*
D14*
X169750000Y-119115000D03*
X169750000Y-121655000D03*
X169750000Y-124195000D03*
X169750000Y-126735000D03*
X169750000Y-129275000D03*
X169750000Y-131815000D03*
X169750000Y-134355000D03*
D15*
X152500000Y-146000000D03*
X160950000Y-146000000D03*
D16*
X149750000Y-85750000D03*
X146800000Y-130700000D03*
X127000000Y-135700000D03*
X156500000Y-81000000D03*
X170500000Y-133000000D03*
X167000000Y-132200000D03*
X129700000Y-134000000D03*
X170500000Y-130500000D03*
X142649999Y-135900000D03*
X167500000Y-125750000D03*
X160100000Y-136300000D03*
X171000000Y-114250000D03*
X156500000Y-82500000D03*
X156500000Y-145750000D03*
X145250000Y-85750000D03*
X159000000Y-90500000D03*
X159000000Y-138500000D03*
X148250000Y-85750000D03*
X167750000Y-123500000D03*
X133900000Y-138500000D03*
X144000000Y-79500000D03*
X165500000Y-114250000D03*
X129700000Y-137600000D03*
X154600000Y-138100000D03*
X135400000Y-124200000D03*
X146750000Y-85750000D03*
X170750000Y-90000000D03*
X171000000Y-107000000D03*
X144000000Y-82500000D03*
X168250000Y-104750000D03*
X166500000Y-148000000D03*
X169250000Y-81250000D03*
X133800000Y-133900000D03*
X139875000Y-140500000D03*
X148149999Y-135900000D03*
X129700000Y-140700000D03*
X155750000Y-85750000D03*
X164000000Y-90500000D03*
X166000000Y-111500000D03*
X165900000Y-107900000D03*
X163400000Y-136900000D03*
X138125000Y-140500000D03*
X160654000Y-106900000D03*
X153120000Y-130830000D03*
X167000000Y-89250000D03*
X164500000Y-134000000D03*
X131800000Y-141500000D03*
X141625000Y-140500000D03*
X167250000Y-96500000D03*
X135500000Y-115500000D03*
X151250000Y-85750000D03*
X166250000Y-100500000D03*
X127300000Y-140900000D03*
X131795600Y-138260000D03*
X165000000Y-123500000D03*
X167500000Y-94500000D03*
X163000000Y-108250000D03*
X156500000Y-79500000D03*
X163500000Y-100000000D03*
X144000000Y-84000000D03*
X156500000Y-84000000D03*
X127000000Y-137900000D03*
X126200000Y-142100000D03*
X154250000Y-85750000D03*
X149000000Y-139300000D03*
X165700000Y-136300000D03*
X164900000Y-144700000D03*
X144000000Y-81000000D03*
X160800000Y-132600000D03*
X132600000Y-124200000D03*
X169500000Y-91500000D03*
X152750000Y-85750000D03*
X161400000Y-118500000D03*
X169750000Y-96500000D03*
X169500000Y-98500000D03*
X152800000Y-138700000D03*
D17*
X160950000Y-142030000D03*
X163000000Y-120000000D03*
X167800000Y-99300000D03*
D18*
X168750000Y-96800000D03*
X163922702Y-94422702D03*
D16*
X164750000Y-114450000D03*
X164195998Y-95700000D03*
X166145980Y-109550000D03*
X166500000Y-105300000D03*
X162950000Y-104900000D03*
X167650000Y-105950000D03*
X162950000Y-105700000D03*
X167750000Y-108900000D03*
X162950000Y-107150000D03*
X167100000Y-113800000D03*
X160100000Y-105600000D03*
X160100000Y-123000000D03*
D19*
X160950000Y-146000000D02*
X160950000Y-142030000D01*
X167800000Y-101900000D02*
X169700000Y-103800000D01*
X167800000Y-99300000D02*
X167800000Y-101900000D01*
X169700000Y-113300000D02*
X163000000Y-120000000D01*
X169700000Y-103800000D02*
X169700000Y-113300000D01*
D20*
X166372702Y-94422702D02*
X163922702Y-94422702D01*
X167000000Y-95050000D02*
X166372702Y-94422702D01*
X168750000Y-96800000D02*
X167000000Y-95050000D01*
D21*
X164205167Y-95709169D02*
X164195998Y-95700000D01*
X164200000Y-102450000D02*
X164205167Y-102444833D01*
X162395989Y-104404011D02*
X162395989Y-104254011D01*
X162395989Y-104634074D02*
X162395989Y-104404011D01*
X164750000Y-114450000D02*
X162395989Y-112095989D01*
X162395989Y-112095989D02*
X162395989Y-104634074D01*
X164205167Y-102444833D02*
X164205167Y-95709169D01*
X162395989Y-104254011D02*
X164200000Y-102450000D01*
X166500000Y-109195980D02*
X166500000Y-105300000D01*
X166145980Y-109550000D02*
X166500000Y-109195980D01*
X163950000Y-104900000D02*
X162950000Y-104900000D01*
X167650000Y-105064349D02*
X166931620Y-104345969D01*
X167650000Y-105950000D02*
X167650000Y-105064349D01*
X164504031Y-104345969D02*
X163950000Y-104900000D01*
X166931620Y-104345969D02*
X164504031Y-104345969D01*
X167095989Y-106269926D02*
X167100000Y-106265915D01*
X167095989Y-105076052D02*
X166765926Y-104745989D01*
X167095989Y-108245989D02*
X167095989Y-106269926D01*
X163750000Y-105700000D02*
X162950000Y-105700000D01*
X166765926Y-104745989D02*
X164704011Y-104745989D01*
X167750000Y-108900000D02*
X167095989Y-108245989D01*
X164704011Y-104745989D02*
X163750000Y-105700000D01*
X167095989Y-106215926D02*
X167095989Y-105076052D01*
X167100000Y-106265915D02*
X167100000Y-106219937D01*
X167100000Y-106219937D02*
X167095989Y-106215926D01*
X166800000Y-113800000D02*
X163554011Y-110554011D01*
X163554011Y-110554011D02*
X163554011Y-107754011D01*
X163554011Y-107754011D02*
X162950000Y-107150000D01*
X167100000Y-113800000D02*
X166800000Y-113800000D01*
X160100000Y-123000000D02*
X160100000Y-105600000D01*
G04 #@! TA.AperFunction,Conductor*
G36*
X168423012Y-78862369D02*
G01*
X168426475Y-78863634D01*
X168432044Y-78864187D01*
X168432045Y-78864187D01*
X168434046Y-78864386D01*
X168434057Y-78864387D01*
X168435955Y-78864575D01*
X168463588Y-78864921D01*
X168609888Y-78866750D01*
X168613426Y-78866865D01*
X168625994Y-78867523D01*
X168692685Y-78871014D01*
X168697259Y-78871373D01*
X168949870Y-78897894D01*
X168954481Y-78898500D01*
X169016301Y-78908281D01*
X169020877Y-78909129D01*
X169201215Y-78947417D01*
X169269331Y-78961879D01*
X169273839Y-78962960D01*
X169312129Y-78973208D01*
X169334266Y-78979133D01*
X169338729Y-78980454D01*
X169580350Y-79058870D01*
X169584735Y-79060420D01*
X169643139Y-79082813D01*
X169647422Y-79084585D01*
X169879509Y-79187791D01*
X169883709Y-79189792D01*
X169939499Y-79218181D01*
X169943574Y-79220391D01*
X170077267Y-79297478D01*
X170163601Y-79347258D01*
X170167570Y-79349687D01*
X170220067Y-79383732D01*
X170223905Y-79386366D01*
X170429486Y-79535516D01*
X170433181Y-79538347D01*
X170481825Y-79577679D01*
X170485366Y-79580699D01*
X170674271Y-79750518D01*
X170677651Y-79753720D01*
X170721909Y-79797904D01*
X170725115Y-79801276D01*
X170895251Y-79989886D01*
X170898258Y-79993399D01*
X170937727Y-80042044D01*
X170940528Y-80045688D01*
X171032938Y-80172608D01*
X171090037Y-80251030D01*
X171092677Y-80254863D01*
X171126796Y-80307278D01*
X171129233Y-80311244D01*
X171256484Y-80531076D01*
X171258710Y-80535164D01*
X171287182Y-80590880D01*
X171289190Y-80595078D01*
X171392791Y-80826991D01*
X171394569Y-80831268D01*
X171417069Y-80889655D01*
X171418621Y-80894018D01*
X171497444Y-81135497D01*
X171498771Y-81139956D01*
X171507402Y-81171983D01*
X171515053Y-81200378D01*
X171516137Y-81204860D01*
X171569315Y-81453250D01*
X171570170Y-81457825D01*
X171580050Y-81519594D01*
X171580663Y-81524191D01*
X171602669Y-81730418D01*
X171607614Y-81776764D01*
X171607986Y-81781403D01*
X171612268Y-81860620D01*
X171612389Y-81864152D01*
X171614466Y-82010392D01*
X171615121Y-82014008D01*
X171617576Y-82027567D01*
X171619000Y-82043425D01*
X171619000Y-145407301D01*
X171617046Y-145425848D01*
X171616526Y-145428289D01*
X171614682Y-145433575D01*
X171613880Y-145443068D01*
X171613884Y-145444994D01*
X171614238Y-145615739D01*
X171614173Y-145619316D01*
X171611091Y-145700112D01*
X171610786Y-145704827D01*
X171605348Y-145764286D01*
X171587813Y-145955984D01*
X171587264Y-145960628D01*
X171579475Y-146014226D01*
X171578116Y-146023577D01*
X171577312Y-146028232D01*
X171527860Y-146275469D01*
X171526811Y-146280077D01*
X171511046Y-146341684D01*
X171509753Y-146346228D01*
X171434373Y-146586832D01*
X171432841Y-146591303D01*
X171410634Y-146650893D01*
X171408867Y-146655275D01*
X171370269Y-146744128D01*
X171322459Y-146854187D01*
X171308409Y-146886529D01*
X171306412Y-146890812D01*
X171278012Y-146947716D01*
X171275791Y-146951886D01*
X171151373Y-147171210D01*
X171148934Y-147175255D01*
X171114653Y-147228843D01*
X171112034Y-147232708D01*
X170979717Y-147417185D01*
X170965063Y-147437616D01*
X170962208Y-147441381D01*
X170922460Y-147491008D01*
X170919409Y-147494616D01*
X170751574Y-147682761D01*
X170748359Y-147686180D01*
X170711289Y-147723539D01*
X170703513Y-147731376D01*
X170700096Y-147734641D01*
X170513284Y-147903914D01*
X170509700Y-147906992D01*
X170460368Y-147947138D01*
X170456625Y-147950023D01*
X170252872Y-148098579D01*
X170248982Y-148101260D01*
X170195720Y-148135920D01*
X170191692Y-148138392D01*
X169973322Y-148264524D01*
X169969170Y-148266777D01*
X169938936Y-148282162D01*
X169912494Y-148295617D01*
X169908276Y-148297624D01*
X169691069Y-148393996D01*
X169677765Y-148399899D01*
X169673395Y-148401700D01*
X169614005Y-148424359D01*
X169609549Y-148425926D01*
X169518824Y-148455128D01*
X169369494Y-148503193D01*
X169364997Y-148504509D01*
X169303466Y-148520765D01*
X169298918Y-148521838D01*
X169054784Y-148572648D01*
X169052074Y-148573212D01*
X169047425Y-148574051D01*
X168984510Y-148583695D01*
X168979838Y-148584285D01*
X168787053Y-148603432D01*
X168728959Y-148609202D01*
X168724247Y-148609544D01*
X168689805Y-148611126D01*
X168643385Y-148613258D01*
X168639826Y-148613351D01*
X168530792Y-148613973D01*
X168498557Y-148614157D01*
X168498556Y-148614157D01*
X168494886Y-148614178D01*
X168491266Y-148614802D01*
X168491264Y-148614802D01*
X168474407Y-148617707D01*
X168459293Y-148619000D01*
X155779138Y-148619000D01*
X155721932Y-148598178D01*
X155691492Y-148545455D01*
X155702064Y-148485500D01*
X155731023Y-148455128D01*
X155830592Y-148391139D01*
X155840111Y-148382891D01*
X155927392Y-148282162D01*
X155934209Y-148271556D01*
X155989574Y-148150323D01*
X155993126Y-148138225D01*
X156012548Y-148003145D01*
X156013000Y-147996820D01*
X156013000Y-146269694D01*
X156008624Y-146257671D01*
X156002266Y-146254000D01*
X149002694Y-146254000D01*
X148990671Y-146258376D01*
X148987000Y-146264734D01*
X148987000Y-147998414D01*
X148987113Y-148001584D01*
X148991882Y-148068250D01*
X148993566Y-148077584D01*
X149031565Y-148206999D01*
X149036800Y-148218463D01*
X149108861Y-148330592D01*
X149117109Y-148340111D01*
X149217838Y-148427392D01*
X149228444Y-148434209D01*
X149260927Y-148449043D01*
X149304315Y-148491748D01*
X149310102Y-148552352D01*
X149275580Y-148602497D01*
X149223957Y-148619000D01*
X125800160Y-148618999D01*
X125559420Y-148618999D01*
X125541633Y-148616992D01*
X125538104Y-148615702D01*
X125532535Y-148615149D01*
X125532532Y-148615148D01*
X125530528Y-148614949D01*
X125530524Y-148614949D01*
X125528624Y-148614760D01*
X125399980Y-148613130D01*
X125355386Y-148612565D01*
X125351826Y-148612448D01*
X125272581Y-148608268D01*
X125267909Y-148607898D01*
X125016715Y-148581332D01*
X125012067Y-148580717D01*
X124961439Y-148572648D01*
X124950264Y-148570867D01*
X124945676Y-148570011D01*
X124698662Y-148517170D01*
X124694103Y-148516069D01*
X124633723Y-148499785D01*
X124629230Y-148498445D01*
X124389124Y-148419911D01*
X124384710Y-148418337D01*
X124326396Y-148395801D01*
X124322067Y-148393996D01*
X124091574Y-148290654D01*
X124087348Y-148288624D01*
X124031695Y-148260062D01*
X124027581Y-148257812D01*
X124011049Y-148248195D01*
X123809238Y-148130803D01*
X123805254Y-148128342D01*
X123752903Y-148094078D01*
X123749092Y-148091438D01*
X123545304Y-147942159D01*
X123541600Y-147939292D01*
X123502056Y-147906992D01*
X123493115Y-147899689D01*
X123489587Y-147896648D01*
X123366786Y-147785061D01*
X123302651Y-147726782D01*
X123299266Y-147723539D01*
X123255252Y-147679094D01*
X123252041Y-147675676D01*
X123248474Y-147671672D01*
X123218600Y-147638145D01*
X123084004Y-147487086D01*
X123080979Y-147483506D01*
X123047250Y-147441381D01*
X123041881Y-147434675D01*
X123039071Y-147430970D01*
X122902654Y-147240877D01*
X122891775Y-147225717D01*
X122889143Y-147221837D01*
X122855409Y-147169181D01*
X122852985Y-147165169D01*
X122771795Y-147022407D01*
X122728103Y-146945580D01*
X122725899Y-146941456D01*
X122725361Y-146940381D01*
X122697888Y-146885539D01*
X122695900Y-146881294D01*
X122594813Y-146649806D01*
X122593061Y-146645487D01*
X122571066Y-146586883D01*
X122569539Y-146582463D01*
X122520439Y-146427234D01*
X125235250Y-146427234D01*
X125235250Y-146684465D01*
X125235479Y-146688974D01*
X125249974Y-146831675D01*
X125251780Y-146840472D01*
X125308794Y-147022407D01*
X125312332Y-147030662D01*
X125404767Y-147197418D01*
X125409892Y-147204791D01*
X125533975Y-147349562D01*
X125540464Y-147355742D01*
X125691132Y-147472612D01*
X125698732Y-147477361D01*
X125869813Y-147561543D01*
X125878226Y-147564672D01*
X125949064Y-147583124D01*
X125961800Y-147581920D01*
X125963705Y-147579988D01*
X125964250Y-147577490D01*
X125964250Y-146432194D01*
X125962445Y-146427234D01*
X126472250Y-146427234D01*
X126472250Y-147575714D01*
X126476626Y-147587737D01*
X126476918Y-147587906D01*
X126483322Y-147587334D01*
X126647130Y-147527066D01*
X126655194Y-147523132D01*
X126817240Y-147422658D01*
X126824348Y-147417185D01*
X126962886Y-147286177D01*
X126968746Y-147279388D01*
X127078114Y-147123194D01*
X127082486Y-147115370D01*
X127158210Y-146940381D01*
X127160925Y-146931825D01*
X127200137Y-146744128D01*
X127201017Y-146737354D01*
X127201190Y-146734057D01*
X127201250Y-146731766D01*
X127201250Y-146432194D01*
X127199445Y-146427234D01*
X132235250Y-146427234D01*
X132235250Y-146684465D01*
X132235479Y-146688974D01*
X132249974Y-146831675D01*
X132251780Y-146840472D01*
X132308794Y-147022407D01*
X132312332Y-147030662D01*
X132404767Y-147197418D01*
X132409892Y-147204791D01*
X132533975Y-147349562D01*
X132540464Y-147355742D01*
X132691132Y-147472612D01*
X132698732Y-147477361D01*
X132869813Y-147561543D01*
X132878226Y-147564672D01*
X132949064Y-147583124D01*
X132961800Y-147581920D01*
X132963705Y-147579988D01*
X132964250Y-147577490D01*
X132964250Y-146432194D01*
X132962445Y-146427234D01*
X133472250Y-146427234D01*
X133472250Y-147575714D01*
X133476626Y-147587737D01*
X133476918Y-147587906D01*
X133483322Y-147587334D01*
X133647130Y-147527066D01*
X133655194Y-147523132D01*
X133817240Y-147422658D01*
X133824348Y-147417185D01*
X133962886Y-147286177D01*
X133968746Y-147279388D01*
X134078114Y-147123194D01*
X134082486Y-147115370D01*
X134158210Y-146940381D01*
X134160925Y-146931825D01*
X134200137Y-146744128D01*
X134201017Y-146737354D01*
X134201190Y-146734057D01*
X134201250Y-146731766D01*
X134201250Y-146432194D01*
X134196874Y-146420171D01*
X134190516Y-146416500D01*
X133487944Y-146416500D01*
X133475921Y-146420876D01*
X133472250Y-146427234D01*
X132962445Y-146427234D01*
X132959874Y-146420171D01*
X132953516Y-146416500D01*
X132250944Y-146416500D01*
X132238921Y-146420876D01*
X132235250Y-146427234D01*
X127199445Y-146427234D01*
X127196874Y-146420171D01*
X127190516Y-146416500D01*
X126487944Y-146416500D01*
X126475921Y-146420876D01*
X126472250Y-146427234D01*
X125962445Y-146427234D01*
X125959874Y-146420171D01*
X125953516Y-146416500D01*
X125250944Y-146416500D01*
X125238921Y-146420876D01*
X125235250Y-146427234D01*
X122520439Y-146427234D01*
X122493355Y-146341608D01*
X122492075Y-146337158D01*
X122476373Y-146276592D01*
X122475317Y-146272028D01*
X122474842Y-146269694D01*
X122440993Y-146103551D01*
X122424888Y-146024503D01*
X122424074Y-146019885D01*
X122414833Y-145958025D01*
X122414263Y-145953373D01*
X122390151Y-145701966D01*
X122389826Y-145697289D01*
X122386415Y-145617888D01*
X122386333Y-145614326D01*
X122386272Y-145593234D01*
X125235250Y-145593234D01*
X125235250Y-145892806D01*
X125239626Y-145904829D01*
X125245984Y-145908500D01*
X125948556Y-145908500D01*
X125960579Y-145904124D01*
X125964250Y-145897766D01*
X125964250Y-144749286D01*
X125963604Y-144747510D01*
X126472250Y-144747510D01*
X126472250Y-145892806D01*
X126476626Y-145904829D01*
X126482984Y-145908500D01*
X127185556Y-145908500D01*
X127197579Y-145904124D01*
X127201250Y-145897766D01*
X127201250Y-145640536D01*
X127201021Y-145636026D01*
X127196674Y-145593234D01*
X132235250Y-145593234D01*
X132235250Y-145892806D01*
X132239626Y-145904829D01*
X132245984Y-145908500D01*
X132948556Y-145908500D01*
X132960579Y-145904124D01*
X132964250Y-145897766D01*
X132964250Y-144749286D01*
X132963604Y-144747510D01*
X133472250Y-144747510D01*
X133472250Y-145892806D01*
X133476626Y-145904829D01*
X133482984Y-145908500D01*
X134185556Y-145908500D01*
X134197579Y-145904124D01*
X134201250Y-145897766D01*
X134201250Y-145640536D01*
X134201021Y-145636026D01*
X134186526Y-145493325D01*
X134184720Y-145484528D01*
X134127706Y-145302593D01*
X134124168Y-145294338D01*
X134031733Y-145127582D01*
X134026608Y-145120209D01*
X133902525Y-144975438D01*
X133896036Y-144969258D01*
X133745368Y-144852388D01*
X133737768Y-144847639D01*
X133566687Y-144763457D01*
X133558274Y-144760328D01*
X133487436Y-144741876D01*
X133474700Y-144743080D01*
X133472795Y-144745012D01*
X133472250Y-144747510D01*
X132963604Y-144747510D01*
X132959874Y-144737263D01*
X132959582Y-144737094D01*
X132953178Y-144737666D01*
X132789370Y-144797934D01*
X132781306Y-144801868D01*
X132619260Y-144902342D01*
X132612152Y-144907815D01*
X132473614Y-145038823D01*
X132467754Y-145045612D01*
X132358386Y-145201806D01*
X132354014Y-145209630D01*
X132278290Y-145384619D01*
X132275575Y-145393175D01*
X132236363Y-145580872D01*
X132235483Y-145587646D01*
X132235310Y-145590943D01*
X132235250Y-145593234D01*
X127196674Y-145593234D01*
X127186526Y-145493325D01*
X127184720Y-145484528D01*
X127127706Y-145302593D01*
X127124168Y-145294338D01*
X127031733Y-145127582D01*
X127026608Y-145120209D01*
X126902525Y-144975438D01*
X126896036Y-144969258D01*
X126745368Y-144852388D01*
X126737768Y-144847639D01*
X126566687Y-144763457D01*
X126558274Y-144760328D01*
X126487436Y-144741876D01*
X126474700Y-144743080D01*
X126472795Y-144745012D01*
X126472250Y-144747510D01*
X125963604Y-144747510D01*
X125959874Y-144737263D01*
X125959582Y-144737094D01*
X125953178Y-144737666D01*
X125789370Y-144797934D01*
X125781306Y-144801868D01*
X125619260Y-144902342D01*
X125612152Y-144907815D01*
X125473614Y-145038823D01*
X125467754Y-145045612D01*
X125358386Y-145201806D01*
X125354014Y-145209630D01*
X125278290Y-145384619D01*
X125275575Y-145393175D01*
X125236363Y-145580872D01*
X125235483Y-145587646D01*
X125235310Y-145590943D01*
X125235250Y-145593234D01*
X122386272Y-145593234D01*
X122385922Y-145472505D01*
X122385922Y-145472500D01*
X122385911Y-145468841D01*
X122382251Y-145447238D01*
X122381000Y-145432372D01*
X122381000Y-144496922D01*
X126549225Y-144496922D01*
X126549917Y-144499504D01*
X126551849Y-144501283D01*
X126687709Y-144580674D01*
X126694862Y-144584040D01*
X126894114Y-144656955D01*
X126901729Y-144658996D01*
X127110754Y-144695477D01*
X127118619Y-144696137D01*
X127330796Y-144695027D01*
X127338649Y-144694284D01*
X127547276Y-144655617D01*
X127554880Y-144653494D01*
X127753364Y-144578494D01*
X127760461Y-144575063D01*
X127879085Y-144504067D01*
X127884892Y-144496922D01*
X131549225Y-144496922D01*
X131549917Y-144499504D01*
X131551849Y-144501283D01*
X131687709Y-144580674D01*
X131694862Y-144584040D01*
X131894114Y-144656955D01*
X131901729Y-144658996D01*
X132110754Y-144695477D01*
X132118619Y-144696137D01*
X132330796Y-144695027D01*
X132338649Y-144694284D01*
X132547276Y-144655617D01*
X132554880Y-144653494D01*
X132753364Y-144578494D01*
X132760461Y-144575063D01*
X132879085Y-144504067D01*
X132887152Y-144494141D01*
X132887106Y-144491216D01*
X132885909Y-144489369D01*
X132229346Y-143832806D01*
X132217753Y-143827400D01*
X132210659Y-143829301D01*
X131554631Y-144485329D01*
X131549225Y-144496922D01*
X127884892Y-144496922D01*
X127887152Y-144494141D01*
X127887106Y-144491216D01*
X127885909Y-144489369D01*
X127229346Y-143832806D01*
X127217753Y-143827400D01*
X127210659Y-143829301D01*
X126554631Y-144485329D01*
X126549225Y-144496922D01*
X122381000Y-144496922D01*
X122381000Y-143536264D01*
X125982797Y-143536264D01*
X125983293Y-143544159D01*
X126015386Y-143753882D01*
X126017270Y-143761555D01*
X126085998Y-143962294D01*
X126089207Y-143969501D01*
X126175556Y-144124640D01*
X126185226Y-144133016D01*
X126187391Y-144133050D01*
X126190330Y-144131210D01*
X126847944Y-143473596D01*
X126852886Y-143462997D01*
X127583150Y-143462997D01*
X127585051Y-143470091D01*
X128242938Y-144127978D01*
X128254531Y-144133384D01*
X128256379Y-144132889D01*
X128258967Y-144129989D01*
X128352538Y-143957654D01*
X128355676Y-143950403D01*
X128422296Y-143748963D01*
X128424100Y-143741271D01*
X128453276Y-143536264D01*
X130982797Y-143536264D01*
X130983293Y-143544159D01*
X131015386Y-143753882D01*
X131017270Y-143761555D01*
X131085998Y-143962294D01*
X131089207Y-143969501D01*
X131175556Y-144124640D01*
X131185226Y-144133016D01*
X131187391Y-144133050D01*
X131190330Y-144131210D01*
X131847944Y-143473596D01*
X131852886Y-143462997D01*
X132583150Y-143462997D01*
X132585051Y-143470091D01*
X133242938Y-144127978D01*
X133254531Y-144133384D01*
X133256379Y-144132889D01*
X133258967Y-144129989D01*
X133327821Y-144003177D01*
X148987000Y-144003177D01*
X148987000Y-145730306D01*
X148991376Y-145742329D01*
X148997734Y-145746000D01*
X152230306Y-145746000D01*
X152242329Y-145741624D01*
X152246000Y-145735266D01*
X152246000Y-143502694D01*
X152244195Y-143497734D01*
X152754000Y-143497734D01*
X152754000Y-145730306D01*
X152758376Y-145742329D01*
X152764734Y-145746000D01*
X155997306Y-145746000D01*
X156009329Y-145741624D01*
X156013000Y-145735266D01*
X156013000Y-144001586D01*
X156012943Y-144000000D01*
X157744500Y-144000000D01*
X157744500Y-148000000D01*
X157760143Y-148078641D01*
X157804690Y-148145310D01*
X157871359Y-148189857D01*
X157950000Y-148205500D01*
X163950000Y-148205500D01*
X164028641Y-148189857D01*
X164095310Y-148145310D01*
X164139857Y-148078641D01*
X164155500Y-148000000D01*
X164155500Y-144000000D01*
X164139857Y-143921359D01*
X164095310Y-143854690D01*
X164028641Y-143810143D01*
X163950000Y-143794500D01*
X161939500Y-143794500D01*
X161882292Y-143773678D01*
X161851852Y-143720955D01*
X161850500Y-143705500D01*
X161850500Y-143076038D01*
X161871322Y-143018830D01*
X161876567Y-143013105D01*
X161988373Y-142901299D01*
X162123897Y-142707750D01*
X162223753Y-142493608D01*
X162242138Y-142424994D01*
X162283900Y-142269139D01*
X162283900Y-142269137D01*
X162284907Y-142265380D01*
X162305500Y-142030000D01*
X162284907Y-141794620D01*
X162223753Y-141566392D01*
X162123897Y-141352250D01*
X161988373Y-141158701D01*
X161821299Y-140991627D01*
X161627750Y-140856103D01*
X161413608Y-140756247D01*
X161382083Y-140747800D01*
X161189139Y-140696100D01*
X161189137Y-140696100D01*
X161185380Y-140695093D01*
X160950000Y-140674500D01*
X160714620Y-140695093D01*
X160710863Y-140696100D01*
X160710861Y-140696100D01*
X160517917Y-140747800D01*
X160486392Y-140756247D01*
X160272250Y-140856103D01*
X160078701Y-140991627D01*
X159911627Y-141158701D01*
X159776103Y-141352250D01*
X159676247Y-141566392D01*
X159615093Y-141794620D01*
X159594500Y-142030000D01*
X159615093Y-142265380D01*
X159616100Y-142269137D01*
X159616100Y-142269139D01*
X159657862Y-142424994D01*
X159676247Y-142493608D01*
X159776103Y-142707750D01*
X159911627Y-142901299D01*
X160023433Y-143013105D01*
X160049161Y-143068281D01*
X160049500Y-143076038D01*
X160049500Y-143705500D01*
X160028678Y-143762708D01*
X159975955Y-143793148D01*
X159960500Y-143794500D01*
X157950000Y-143794500D01*
X157871359Y-143810143D01*
X157804690Y-143854690D01*
X157760143Y-143921359D01*
X157744500Y-144000000D01*
X156012943Y-144000000D01*
X156012887Y-143998416D01*
X156008118Y-143931750D01*
X156006434Y-143922416D01*
X155968435Y-143793001D01*
X155963200Y-143781537D01*
X155891139Y-143669408D01*
X155882891Y-143659889D01*
X155782162Y-143572608D01*
X155771556Y-143565791D01*
X155650323Y-143510426D01*
X155638225Y-143506874D01*
X155503145Y-143487452D01*
X155496823Y-143487000D01*
X152769694Y-143487000D01*
X152757671Y-143491376D01*
X152754000Y-143497734D01*
X152244195Y-143497734D01*
X152241624Y-143490671D01*
X152235266Y-143487000D01*
X149501586Y-143487000D01*
X149498416Y-143487113D01*
X149431750Y-143491882D01*
X149422416Y-143493566D01*
X149293001Y-143531565D01*
X149281537Y-143536800D01*
X149169408Y-143608861D01*
X149159889Y-143617109D01*
X149072608Y-143717838D01*
X149065791Y-143728444D01*
X149010426Y-143849677D01*
X149006874Y-143861775D01*
X148987452Y-143996855D01*
X148987000Y-144003177D01*
X133327821Y-144003177D01*
X133352538Y-143957654D01*
X133355676Y-143950403D01*
X133422296Y-143748963D01*
X133424100Y-143741271D01*
X133454192Y-143529831D01*
X133454620Y-143524725D01*
X133456183Y-143465062D01*
X133456023Y-143459954D01*
X133437035Y-143247207D01*
X133435641Y-143239456D01*
X133379651Y-143034792D01*
X133376896Y-143027386D01*
X133285555Y-142835884D01*
X133281539Y-142829092D01*
X133261147Y-142800713D01*
X133250580Y-142793505D01*
X133245998Y-142793962D01*
X132588556Y-143451404D01*
X132583150Y-143462997D01*
X131852886Y-143462997D01*
X131853350Y-143462003D01*
X131851449Y-143454909D01*
X131196367Y-142799827D01*
X131184774Y-142794421D01*
X131181461Y-142795309D01*
X131180531Y-142796288D01*
X131117290Y-142897102D01*
X131113705Y-142904139D01*
X131034570Y-143100994D01*
X131032283Y-143108565D01*
X130989260Y-143316322D01*
X130988351Y-143324179D01*
X130982797Y-143536264D01*
X128453276Y-143536264D01*
X128454192Y-143529831D01*
X128454620Y-143524725D01*
X128456183Y-143465062D01*
X128456023Y-143459954D01*
X128437035Y-143247207D01*
X128435641Y-143239456D01*
X128379651Y-143034792D01*
X128376896Y-143027386D01*
X128285555Y-142835884D01*
X128281539Y-142829092D01*
X128261147Y-142800713D01*
X128250580Y-142793505D01*
X128245998Y-142793962D01*
X127588556Y-143451404D01*
X127583150Y-143462997D01*
X126852886Y-143462997D01*
X126853350Y-143462003D01*
X126851449Y-143454909D01*
X126196367Y-142799827D01*
X126184774Y-142794421D01*
X126181461Y-142795309D01*
X126180531Y-142796288D01*
X126117290Y-142897102D01*
X126113705Y-142904139D01*
X126034570Y-143100994D01*
X126032283Y-143108565D01*
X125989260Y-143316322D01*
X125988351Y-143324179D01*
X125982797Y-143536264D01*
X122381000Y-143536264D01*
X122381000Y-142428321D01*
X126547620Y-142428321D01*
X126548278Y-142433318D01*
X127207154Y-143092194D01*
X127218747Y-143097600D01*
X127225841Y-143095699D01*
X127880867Y-142440673D01*
X127886273Y-142429080D01*
X127886070Y-142428321D01*
X131547620Y-142428321D01*
X131548278Y-142433318D01*
X132207154Y-143092194D01*
X132218747Y-143097600D01*
X132225841Y-143095699D01*
X132880867Y-142440673D01*
X132886273Y-142429080D01*
X132885191Y-142425041D01*
X132885142Y-142424994D01*
X132817955Y-142379845D01*
X132811028Y-142376037D01*
X132616753Y-142290757D01*
X132609268Y-142288238D01*
X132402958Y-142238707D01*
X132395138Y-142237552D01*
X132183324Y-142225339D01*
X132175424Y-142225588D01*
X131964790Y-142251077D01*
X131957072Y-142252717D01*
X131754271Y-142315107D01*
X131746959Y-142318091D01*
X131558420Y-142415403D01*
X131554105Y-142418141D01*
X131547620Y-142428321D01*
X127886070Y-142428321D01*
X127885191Y-142425041D01*
X127885142Y-142424994D01*
X127817955Y-142379845D01*
X127811028Y-142376037D01*
X127616753Y-142290757D01*
X127609268Y-142288238D01*
X127402958Y-142238707D01*
X127395138Y-142237552D01*
X127183324Y-142225339D01*
X127175424Y-142225588D01*
X126964790Y-142251077D01*
X126957072Y-142252717D01*
X126754271Y-142315107D01*
X126746959Y-142318091D01*
X126558420Y-142415403D01*
X126554105Y-142418141D01*
X126547620Y-142428321D01*
X122381000Y-142428321D01*
X122381000Y-136414181D01*
X150049045Y-136414181D01*
X150050950Y-136420550D01*
X150073728Y-136496714D01*
X150087852Y-136543943D01*
X150163099Y-136656558D01*
X150168259Y-136660759D01*
X150168261Y-136660761D01*
X150222727Y-136705103D01*
X150268132Y-136742068D01*
X150330856Y-136767474D01*
X150376062Y-136808250D01*
X150384482Y-136868545D01*
X150352175Y-136920145D01*
X150329555Y-136932969D01*
X150280527Y-136951936D01*
X150280525Y-136951937D01*
X150274319Y-136954338D01*
X150167956Y-137038188D01*
X150090949Y-137149607D01*
X150088942Y-137155953D01*
X150069932Y-137216064D01*
X150050109Y-137278743D01*
X150049045Y-137414179D01*
X150050950Y-137420548D01*
X150073728Y-137496712D01*
X150087852Y-137543941D01*
X150163099Y-137656556D01*
X150168259Y-137660757D01*
X150168261Y-137660759D01*
X150222727Y-137705101D01*
X150268132Y-137742066D01*
X150274300Y-137744564D01*
X150274301Y-137744565D01*
X150306816Y-137757735D01*
X150393666Y-137792913D01*
X150528601Y-137804599D01*
X150535103Y-137803199D01*
X150535105Y-137803199D01*
X150616375Y-137785702D01*
X150661007Y-137776093D01*
X150721767Y-137742066D01*
X150773375Y-137713165D01*
X150773378Y-137713163D01*
X150779179Y-137709914D01*
X150830079Y-137656556D01*
X150868075Y-137616726D01*
X150868076Y-137616725D01*
X150872666Y-137611913D01*
X150919522Y-137518140D01*
X150963719Y-137476272D01*
X151024488Y-137472609D01*
X151073395Y-137508865D01*
X151084405Y-137532423D01*
X151087850Y-137543941D01*
X151163097Y-137656556D01*
X151168257Y-137660757D01*
X151168259Y-137660759D01*
X151222725Y-137705101D01*
X151268130Y-137742066D01*
X151274298Y-137744564D01*
X151274299Y-137744565D01*
X151306814Y-137757735D01*
X151393664Y-137792913D01*
X151528599Y-137804599D01*
X151535101Y-137803199D01*
X151535103Y-137803199D01*
X151616373Y-137785702D01*
X151661005Y-137776093D01*
X151721765Y-137742066D01*
X151773373Y-137713165D01*
X151773376Y-137713163D01*
X151779177Y-137709914D01*
X151830077Y-137656556D01*
X151868073Y-137616726D01*
X151868074Y-137616725D01*
X151872664Y-137611913D01*
X151933203Y-137490756D01*
X151955441Y-137357154D01*
X151955497Y-137349999D01*
X151947617Y-137297587D01*
X151936350Y-137222642D01*
X151935361Y-137216064D01*
X151906496Y-137155953D01*
X151879614Y-137099972D01*
X151879613Y-137099970D01*
X151876732Y-137093971D01*
X151825167Y-137038188D01*
X151789312Y-136999400D01*
X151789310Y-136999399D01*
X151784795Y-136994514D01*
X151667678Y-136926487D01*
X151669494Y-136923360D01*
X151633946Y-136891891D01*
X151624964Y-136831678D01*
X151656788Y-136779779D01*
X151668685Y-136771794D01*
X151773373Y-136713167D01*
X151773376Y-136713165D01*
X151779177Y-136709916D01*
X151830077Y-136656558D01*
X151868073Y-136616728D01*
X151868074Y-136616727D01*
X151872664Y-136611915D01*
X151933203Y-136490758D01*
X151955441Y-136357156D01*
X151955497Y-136350001D01*
X151954977Y-136346542D01*
X151936350Y-136222644D01*
X151935361Y-136216066D01*
X151932481Y-136210068D01*
X151879614Y-136099974D01*
X151879613Y-136099972D01*
X151876732Y-136093973D01*
X151825167Y-136038190D01*
X151789312Y-135999402D01*
X151789310Y-135999401D01*
X151784795Y-135994516D01*
X151722724Y-135958462D01*
X151673434Y-135929832D01*
X151673432Y-135929831D01*
X151667678Y-135926489D01*
X151535736Y-135895906D01*
X151472960Y-135900351D01*
X151407265Y-135905002D01*
X151407262Y-135905003D01*
X151400634Y-135905472D01*
X151394433Y-135907871D01*
X151280525Y-135951938D01*
X151280523Y-135951939D01*
X151274317Y-135954340D01*
X151167954Y-136038190D01*
X151090947Y-136149609D01*
X151088940Y-136155955D01*
X151084277Y-136170699D01*
X151047174Y-136218966D01*
X150987726Y-136232090D01*
X150933750Y-136203932D01*
X150919191Y-136182388D01*
X150879616Y-136099974D01*
X150879615Y-136099972D01*
X150876734Y-136093973D01*
X150825169Y-136038190D01*
X150789314Y-135999402D01*
X150789312Y-135999401D01*
X150784797Y-135994516D01*
X150722726Y-135958462D01*
X150673436Y-135929832D01*
X150673434Y-135929831D01*
X150667680Y-135926489D01*
X150535738Y-135895906D01*
X150472962Y-135900351D01*
X150407267Y-135905002D01*
X150407264Y-135905003D01*
X150400636Y-135905472D01*
X150394435Y-135907871D01*
X150280527Y-135951938D01*
X150280525Y-135951939D01*
X150274319Y-135954340D01*
X150167956Y-136038190D01*
X150090949Y-136149609D01*
X150088942Y-136155955D01*
X150069932Y-136216066D01*
X150050109Y-136278745D01*
X150050057Y-136285398D01*
X150049189Y-136395905D01*
X150049045Y-136414181D01*
X122381000Y-136414181D01*
X122381000Y-134340263D01*
X168694603Y-134340263D01*
X168711840Y-134545538D01*
X168768621Y-134743555D01*
X168862782Y-134926773D01*
X168990737Y-135088212D01*
X169147612Y-135221723D01*
X169151404Y-135223842D01*
X169151405Y-135223843D01*
X169323636Y-135320100D01*
X169323640Y-135320102D01*
X169327432Y-135322221D01*
X169331567Y-135323565D01*
X169331568Y-135323565D01*
X169519207Y-135384533D01*
X169519209Y-135384533D01*
X169523347Y-135385878D01*
X169727895Y-135410269D01*
X169732224Y-135409936D01*
X169732228Y-135409936D01*
X169928950Y-135394799D01*
X169928954Y-135394798D01*
X169933286Y-135394465D01*
X169937474Y-135393296D01*
X169937478Y-135393295D01*
X170054484Y-135360626D01*
X170131695Y-135339068D01*
X170135578Y-135337107D01*
X170135582Y-135337105D01*
X170224590Y-135292143D01*
X170315565Y-135246188D01*
X170403876Y-135177192D01*
X170474461Y-135122045D01*
X170474465Y-135122042D01*
X170477893Y-135119363D01*
X170612496Y-134963424D01*
X170714247Y-134784311D01*
X170729199Y-134739365D01*
X170777894Y-134592979D01*
X170779270Y-134588844D01*
X170805088Y-134384471D01*
X170805500Y-134355000D01*
X170785398Y-134149986D01*
X170725858Y-133952780D01*
X170723814Y-133948936D01*
X170723812Y-133948931D01*
X170631191Y-133774738D01*
X170629148Y-133770895D01*
X170498952Y-133611259D01*
X170444103Y-133565884D01*
X170343576Y-133482720D01*
X170343571Y-133482717D01*
X170340228Y-133479951D01*
X170159023Y-133381973D01*
X170136911Y-133375128D01*
X170094874Y-133362116D01*
X169962238Y-133321058D01*
X169859803Y-133310292D01*
X169761703Y-133299981D01*
X169761698Y-133299981D01*
X169757369Y-133299526D01*
X169552219Y-133318196D01*
X169354603Y-133376357D01*
X169343861Y-133381973D01*
X169175908Y-133469776D01*
X169175904Y-133469779D01*
X169172047Y-133471795D01*
X169011505Y-133600874D01*
X168879093Y-133758677D01*
X168779853Y-133939194D01*
X168778538Y-133943341D01*
X168778537Y-133943342D01*
X168718879Y-134131405D01*
X168718878Y-134131410D01*
X168717565Y-134135549D01*
X168717080Y-134139869D01*
X168717080Y-134139871D01*
X168715459Y-134154323D01*
X168694603Y-134340263D01*
X122381000Y-134340263D01*
X122381000Y-130106635D01*
X126946361Y-130106635D01*
X126978062Y-130451632D01*
X127048614Y-130790822D01*
X127049401Y-130793209D01*
X127049403Y-130793216D01*
X127065057Y-130840687D01*
X127157109Y-131119844D01*
X127302154Y-131434470D01*
X127481882Y-131730654D01*
X127693985Y-132004588D01*
X127935734Y-132252751D01*
X127957677Y-132270679D01*
X128202063Y-132470351D01*
X128202069Y-132470356D01*
X128204022Y-132471951D01*
X128495400Y-132659372D01*
X128806121Y-132812603D01*
X128808483Y-132813451D01*
X128808490Y-132813454D01*
X128966734Y-132870269D01*
X129132191Y-132929674D01*
X129469418Y-133009080D01*
X129813466Y-133049801D01*
X130017434Y-133050691D01*
X130157388Y-133051302D01*
X130159913Y-133051313D01*
X130273059Y-133038921D01*
X130501787Y-133013872D01*
X130501795Y-133013871D01*
X130504303Y-133013596D01*
X130506769Y-133013038D01*
X130506775Y-133013037D01*
X130682158Y-132973351D01*
X130842210Y-132937135D01*
X130844583Y-132936306D01*
X130844591Y-132936304D01*
X131166898Y-132823749D01*
X131169289Y-132822914D01*
X131481336Y-132672401D01*
X131678163Y-132548212D01*
X131772210Y-132488873D01*
X131772214Y-132488870D01*
X131774338Y-132487530D01*
X131795743Y-132470351D01*
X132042566Y-132272255D01*
X132042571Y-132272250D01*
X132044529Y-132270679D01*
X132164269Y-132149889D01*
X132286664Y-132026422D01*
X132286668Y-132026417D01*
X132288434Y-132024636D01*
X132289988Y-132022665D01*
X132289994Y-132022658D01*
X132403727Y-131878388D01*
X132502919Y-131752563D01*
X132685226Y-131457959D01*
X132792316Y-131230895D01*
X132831933Y-131146894D01*
X132831934Y-131146891D01*
X132833010Y-131144610D01*
X132842228Y-131117456D01*
X132943565Y-130818928D01*
X132943566Y-130818924D01*
X132944373Y-130816547D01*
X133017882Y-130477986D01*
X133032757Y-130330269D01*
X133052416Y-130135028D01*
X133052416Y-130135025D01*
X133052592Y-130133279D01*
X133053173Y-130106635D01*
X159946361Y-130106635D01*
X159978062Y-130451632D01*
X160048614Y-130790822D01*
X160049401Y-130793209D01*
X160049403Y-130793216D01*
X160065057Y-130840687D01*
X160157109Y-131119844D01*
X160302154Y-131434470D01*
X160481882Y-131730654D01*
X160693985Y-132004588D01*
X160935734Y-132252751D01*
X160957677Y-132270679D01*
X161202063Y-132470351D01*
X161202069Y-132470356D01*
X161204022Y-132471951D01*
X161495400Y-132659372D01*
X161806121Y-132812603D01*
X161808483Y-132813451D01*
X161808490Y-132813454D01*
X161966734Y-132870269D01*
X162132191Y-132929674D01*
X162469418Y-133009080D01*
X162813466Y-133049801D01*
X163017434Y-133050691D01*
X163157388Y-133051302D01*
X163159913Y-133051313D01*
X163273059Y-133038921D01*
X163501787Y-133013872D01*
X163501795Y-133013871D01*
X163504303Y-133013596D01*
X163506769Y-133013038D01*
X163506775Y-133013037D01*
X163682158Y-132973351D01*
X163842210Y-132937135D01*
X163844583Y-132936306D01*
X163844591Y-132936304D01*
X164166898Y-132823749D01*
X164169289Y-132822914D01*
X164481336Y-132672401D01*
X164678163Y-132548212D01*
X164772210Y-132488873D01*
X164772214Y-132488870D01*
X164774338Y-132487530D01*
X164795743Y-132470351D01*
X165042566Y-132272255D01*
X165042571Y-132272250D01*
X165044529Y-132270679D01*
X165164269Y-132149889D01*
X165286664Y-132026422D01*
X165286668Y-132026417D01*
X165288434Y-132024636D01*
X165289988Y-132022665D01*
X165289994Y-132022658D01*
X165403727Y-131878388D01*
X165465316Y-131800263D01*
X168694603Y-131800263D01*
X168711840Y-132005538D01*
X168768621Y-132203555D01*
X168862782Y-132386773D01*
X168990737Y-132548212D01*
X169147612Y-132681723D01*
X169151404Y-132683842D01*
X169151405Y-132683843D01*
X169323636Y-132780100D01*
X169323640Y-132780102D01*
X169327432Y-132782221D01*
X169331567Y-132783565D01*
X169331568Y-132783565D01*
X169519207Y-132844533D01*
X169519209Y-132844533D01*
X169523347Y-132845878D01*
X169727895Y-132870269D01*
X169732224Y-132869936D01*
X169732228Y-132869936D01*
X169928950Y-132854799D01*
X169928954Y-132854798D01*
X169933286Y-132854465D01*
X169937474Y-132853296D01*
X169937478Y-132853295D01*
X170087208Y-132811489D01*
X170131695Y-132799068D01*
X170135578Y-132797107D01*
X170135582Y-132797105D01*
X170224590Y-132752143D01*
X170315565Y-132706188D01*
X170403876Y-132637192D01*
X170474461Y-132582045D01*
X170474465Y-132582042D01*
X170477893Y-132579363D01*
X170556002Y-132488873D01*
X170609654Y-132426717D01*
X170609656Y-132426714D01*
X170612496Y-132423424D01*
X170714247Y-132244311D01*
X170729199Y-132199365D01*
X170777894Y-132052979D01*
X170779270Y-132048844D01*
X170805088Y-131844471D01*
X170805500Y-131815000D01*
X170785398Y-131609986D01*
X170725858Y-131412780D01*
X170723814Y-131408936D01*
X170723812Y-131408931D01*
X170631191Y-131234738D01*
X170629148Y-131230895D01*
X170498952Y-131071259D01*
X170444103Y-131025884D01*
X170343576Y-130942720D01*
X170343571Y-130942717D01*
X170340228Y-130939951D01*
X170159023Y-130841973D01*
X170136911Y-130835128D01*
X169993780Y-130790822D01*
X169962238Y-130781058D01*
X169859804Y-130770292D01*
X169761703Y-130759981D01*
X169761698Y-130759981D01*
X169757369Y-130759526D01*
X169552219Y-130778196D01*
X169354603Y-130836357D01*
X169343861Y-130841973D01*
X169175908Y-130929776D01*
X169175904Y-130929779D01*
X169172047Y-130931795D01*
X169011505Y-131060874D01*
X168879093Y-131218677D01*
X168779853Y-131399194D01*
X168778538Y-131403341D01*
X168778537Y-131403342D01*
X168718879Y-131591405D01*
X168718878Y-131591410D01*
X168717565Y-131595549D01*
X168717080Y-131599869D01*
X168717080Y-131599871D01*
X168699953Y-131752563D01*
X168694603Y-131800263D01*
X165465316Y-131800263D01*
X165502919Y-131752563D01*
X165685226Y-131457959D01*
X165792316Y-131230895D01*
X165831933Y-131146894D01*
X165831934Y-131146891D01*
X165833010Y-131144610D01*
X165842228Y-131117456D01*
X165943565Y-130818928D01*
X165943566Y-130818924D01*
X165944373Y-130816547D01*
X166017882Y-130477986D01*
X166032757Y-130330269D01*
X166052416Y-130135028D01*
X166052416Y-130135025D01*
X166052592Y-130133279D01*
X166055500Y-130000000D01*
X166049068Y-129886717D01*
X166036002Y-129656625D01*
X166036002Y-129656624D01*
X166035859Y-129654108D01*
X165977188Y-129312662D01*
X165961915Y-129260263D01*
X168694603Y-129260263D01*
X168696050Y-129277492D01*
X168707558Y-129414539D01*
X168711840Y-129465538D01*
X168768621Y-129663555D01*
X168862782Y-129846773D01*
X168990737Y-130008212D01*
X169030491Y-130042045D01*
X169135631Y-130131526D01*
X169147612Y-130141723D01*
X169151404Y-130143842D01*
X169151405Y-130143843D01*
X169323636Y-130240100D01*
X169323640Y-130240102D01*
X169327432Y-130242221D01*
X169331567Y-130243565D01*
X169331568Y-130243565D01*
X169519207Y-130304533D01*
X169519209Y-130304533D01*
X169523347Y-130305878D01*
X169727895Y-130330269D01*
X169732224Y-130329936D01*
X169732228Y-130329936D01*
X169928950Y-130314799D01*
X169928954Y-130314798D01*
X169933286Y-130314465D01*
X169937474Y-130313296D01*
X169937478Y-130313295D01*
X170054484Y-130280626D01*
X170131695Y-130259068D01*
X170135578Y-130257107D01*
X170135582Y-130257105D01*
X170224590Y-130212143D01*
X170315565Y-130166188D01*
X170403876Y-130097192D01*
X170474461Y-130042045D01*
X170474465Y-130042042D01*
X170477893Y-130039363D01*
X170507726Y-130004801D01*
X170609654Y-129886717D01*
X170609656Y-129886714D01*
X170612496Y-129883424D01*
X170714247Y-129704311D01*
X170729199Y-129659365D01*
X170777894Y-129512979D01*
X170779270Y-129508844D01*
X170805088Y-129304471D01*
X170805500Y-129275000D01*
X170785398Y-129069986D01*
X170725858Y-128872780D01*
X170723814Y-128868936D01*
X170723812Y-128868931D01*
X170665661Y-128759566D01*
X170629148Y-128690895D01*
X170498952Y-128531259D01*
X170402488Y-128451457D01*
X170343576Y-128402720D01*
X170343571Y-128402717D01*
X170340228Y-128399951D01*
X170159023Y-128301973D01*
X170136911Y-128295128D01*
X170094874Y-128282116D01*
X169962238Y-128241058D01*
X169859804Y-128230292D01*
X169761703Y-128219981D01*
X169761698Y-128219981D01*
X169757369Y-128219526D01*
X169552219Y-128238196D01*
X169354603Y-128296357D01*
X169343861Y-128301973D01*
X169175908Y-128389776D01*
X169175904Y-128389779D01*
X169172047Y-128391795D01*
X169011505Y-128520874D01*
X168879093Y-128678677D01*
X168779853Y-128859194D01*
X168778538Y-128863341D01*
X168778537Y-128863342D01*
X168718879Y-129051405D01*
X168718878Y-129051410D01*
X168717565Y-129055549D01*
X168717080Y-129059869D01*
X168717080Y-129059871D01*
X168714416Y-129083625D01*
X168694603Y-129260263D01*
X165961915Y-129260263D01*
X165880241Y-128980053D01*
X165786798Y-128757216D01*
X165747244Y-128662891D01*
X165747242Y-128662887D01*
X165746265Y-128660557D01*
X165576983Y-128358281D01*
X165492594Y-128241058D01*
X165376042Y-128079158D01*
X165376041Y-128079157D01*
X165374569Y-128077112D01*
X165141628Y-127820663D01*
X164881154Y-127592233D01*
X164879087Y-127590799D01*
X164598559Y-127396190D01*
X164598552Y-127396186D01*
X164596494Y-127394758D01*
X164291310Y-127230777D01*
X164288975Y-127229846D01*
X164288972Y-127229844D01*
X163971871Y-127103333D01*
X163971865Y-127103331D01*
X163969524Y-127102397D01*
X163967091Y-127101734D01*
X163967086Y-127101732D01*
X163723272Y-127035261D01*
X163635274Y-127011270D01*
X163464066Y-126984919D01*
X163295348Y-126958950D01*
X163295341Y-126958949D01*
X163292857Y-126958567D01*
X163119766Y-126951766D01*
X162949195Y-126945064D01*
X162949194Y-126945064D01*
X162946674Y-126944965D01*
X162879188Y-126949980D01*
X162603701Y-126970452D01*
X162603693Y-126970453D01*
X162601177Y-126970640D01*
X162260808Y-127035261D01*
X162258395Y-127036010D01*
X162258392Y-127036011D01*
X161932353Y-127137249D01*
X161929941Y-127137998D01*
X161612832Y-127277530D01*
X161610644Y-127278806D01*
X161315742Y-127450787D01*
X161315733Y-127450793D01*
X161313557Y-127452062D01*
X161311542Y-127453567D01*
X161311534Y-127453572D01*
X161077745Y-127628150D01*
X161035962Y-127659351D01*
X161034126Y-127661078D01*
X161034119Y-127661084D01*
X160924151Y-127764533D01*
X160783619Y-127896733D01*
X160559769Y-128161154D01*
X160367292Y-128449217D01*
X160366141Y-128451453D01*
X160366138Y-128451457D01*
X160323302Y-128534629D01*
X160208662Y-128757216D01*
X160085918Y-129081193D01*
X160000638Y-129416983D01*
X160000298Y-129419480D01*
X160000297Y-129419486D01*
X159962096Y-129700185D01*
X159953919Y-129760268D01*
X159946361Y-130106635D01*
X133053173Y-130106635D01*
X133055500Y-130000000D01*
X133049068Y-129886717D01*
X133036002Y-129656625D01*
X133036002Y-129656624D01*
X133035859Y-129654108D01*
X132977188Y-129312662D01*
X132880241Y-128980053D01*
X132786798Y-128757216D01*
X132747244Y-128662891D01*
X132747242Y-128662887D01*
X132746265Y-128660557D01*
X132576983Y-128358281D01*
X132492594Y-128241058D01*
X132376042Y-128079158D01*
X132376041Y-128079157D01*
X132374569Y-128077112D01*
X132141628Y-127820663D01*
X131881154Y-127592233D01*
X131879087Y-127590799D01*
X131598559Y-127396190D01*
X131598552Y-127396186D01*
X131596494Y-127394758D01*
X131291310Y-127230777D01*
X131288975Y-127229846D01*
X131288972Y-127229844D01*
X130971871Y-127103333D01*
X130971865Y-127103331D01*
X130969524Y-127102397D01*
X130967091Y-127101734D01*
X130967086Y-127101732D01*
X130723272Y-127035261D01*
X130635274Y-127011270D01*
X130464066Y-126984919D01*
X130295348Y-126958950D01*
X130295341Y-126958949D01*
X130292857Y-126958567D01*
X130119766Y-126951766D01*
X129949195Y-126945064D01*
X129949194Y-126945064D01*
X129946674Y-126944965D01*
X129879188Y-126949980D01*
X129603701Y-126970452D01*
X129603693Y-126970453D01*
X129601177Y-126970640D01*
X129260808Y-127035261D01*
X129258395Y-127036010D01*
X129258392Y-127036011D01*
X128932353Y-127137249D01*
X128929941Y-127137998D01*
X128612832Y-127277530D01*
X128610644Y-127278806D01*
X128315742Y-127450787D01*
X128315733Y-127450793D01*
X128313557Y-127452062D01*
X128311542Y-127453567D01*
X128311534Y-127453572D01*
X128077745Y-127628150D01*
X128035962Y-127659351D01*
X128034126Y-127661078D01*
X128034119Y-127661084D01*
X127924151Y-127764533D01*
X127783619Y-127896733D01*
X127559769Y-128161154D01*
X127367292Y-128449217D01*
X127366141Y-128451453D01*
X127366138Y-128451457D01*
X127323302Y-128534629D01*
X127208662Y-128757216D01*
X127085918Y-129081193D01*
X127000638Y-129416983D01*
X127000298Y-129419480D01*
X127000297Y-129419486D01*
X126962096Y-129700185D01*
X126953919Y-129760268D01*
X126946361Y-130106635D01*
X122381000Y-130106635D01*
X122381000Y-126720263D01*
X168694603Y-126720263D01*
X168711840Y-126925538D01*
X168768621Y-127123555D01*
X168862782Y-127306773D01*
X168865488Y-127310187D01*
X168977937Y-127452062D01*
X168990737Y-127468212D01*
X169147612Y-127601723D01*
X169151404Y-127603842D01*
X169151405Y-127603843D01*
X169323636Y-127700100D01*
X169323640Y-127700102D01*
X169327432Y-127702221D01*
X169331567Y-127703565D01*
X169331568Y-127703565D01*
X169519207Y-127764533D01*
X169519209Y-127764533D01*
X169523347Y-127765878D01*
X169727895Y-127790269D01*
X169732224Y-127789936D01*
X169732228Y-127789936D01*
X169928950Y-127774799D01*
X169928954Y-127774798D01*
X169933286Y-127774465D01*
X169937474Y-127773296D01*
X169937478Y-127773295D01*
X170054484Y-127740626D01*
X170131695Y-127719068D01*
X170135578Y-127717107D01*
X170135582Y-127717105D01*
X170252905Y-127657840D01*
X170315565Y-127626188D01*
X170403876Y-127557192D01*
X170474461Y-127502045D01*
X170474465Y-127502042D01*
X170477893Y-127499363D01*
X170568186Y-127394758D01*
X170609654Y-127346717D01*
X170609656Y-127346714D01*
X170612496Y-127343424D01*
X170714247Y-127164311D01*
X170722663Y-127139014D01*
X170746555Y-127067190D01*
X170779270Y-126968844D01*
X170805088Y-126764471D01*
X170805500Y-126735000D01*
X170785398Y-126529986D01*
X170725858Y-126332780D01*
X170723814Y-126328936D01*
X170723812Y-126328931D01*
X170631191Y-126154738D01*
X170629148Y-126150895D01*
X170498952Y-125991259D01*
X170444103Y-125945884D01*
X170343576Y-125862720D01*
X170343571Y-125862717D01*
X170340228Y-125859951D01*
X170159023Y-125761973D01*
X170136911Y-125755128D01*
X170094874Y-125742116D01*
X169962238Y-125701058D01*
X169859803Y-125690292D01*
X169761703Y-125679981D01*
X169761698Y-125679981D01*
X169757369Y-125679526D01*
X169552219Y-125698196D01*
X169354603Y-125756357D01*
X169343861Y-125761973D01*
X169175908Y-125849776D01*
X169175904Y-125849779D01*
X169172047Y-125851795D01*
X169011505Y-125980874D01*
X168879093Y-126138677D01*
X168779853Y-126319194D01*
X168778538Y-126323341D01*
X168778537Y-126323342D01*
X168718879Y-126511405D01*
X168718878Y-126511410D01*
X168717565Y-126515549D01*
X168717080Y-126519869D01*
X168717080Y-126519871D01*
X168715459Y-126534323D01*
X168694603Y-126720263D01*
X122381000Y-126720263D01*
X122381000Y-124180263D01*
X168694603Y-124180263D01*
X168711840Y-124385538D01*
X168768621Y-124583555D01*
X168862782Y-124766773D01*
X168990737Y-124928212D01*
X169147612Y-125061723D01*
X169151404Y-125063842D01*
X169151405Y-125063843D01*
X169323636Y-125160100D01*
X169323640Y-125160102D01*
X169327432Y-125162221D01*
X169331567Y-125163565D01*
X169331568Y-125163565D01*
X169519207Y-125224533D01*
X169519209Y-125224533D01*
X169523347Y-125225878D01*
X169727895Y-125250269D01*
X169732224Y-125249936D01*
X169732228Y-125249936D01*
X169928950Y-125234799D01*
X169928954Y-125234798D01*
X169933286Y-125234465D01*
X169937474Y-125233296D01*
X169937478Y-125233295D01*
X170054484Y-125200626D01*
X170131695Y-125179068D01*
X170135578Y-125177107D01*
X170135582Y-125177105D01*
X170224590Y-125132143D01*
X170315565Y-125086188D01*
X170403876Y-125017192D01*
X170474461Y-124962045D01*
X170474465Y-124962042D01*
X170477893Y-124959363D01*
X170612496Y-124803424D01*
X170714247Y-124624311D01*
X170729199Y-124579365D01*
X170777894Y-124432979D01*
X170779270Y-124428844D01*
X170805088Y-124224471D01*
X170805500Y-124195000D01*
X170785398Y-123989986D01*
X170725858Y-123792780D01*
X170723814Y-123788936D01*
X170723812Y-123788931D01*
X170631191Y-123614738D01*
X170629148Y-123610895D01*
X170498952Y-123451259D01*
X170396287Y-123366327D01*
X170343576Y-123322720D01*
X170343571Y-123322717D01*
X170340228Y-123319951D01*
X170159023Y-123221973D01*
X170136911Y-123215128D01*
X170053383Y-123189272D01*
X169962238Y-123161058D01*
X169859803Y-123150292D01*
X169761703Y-123139981D01*
X169761698Y-123139981D01*
X169757369Y-123139526D01*
X169552219Y-123158196D01*
X169354603Y-123216357D01*
X169343861Y-123221973D01*
X169175908Y-123309776D01*
X169175904Y-123309779D01*
X169172047Y-123311795D01*
X169011505Y-123440874D01*
X168879093Y-123598677D01*
X168779853Y-123779194D01*
X168778538Y-123783341D01*
X168778537Y-123783342D01*
X168718879Y-123971405D01*
X168718878Y-123971410D01*
X168717565Y-123975549D01*
X168717080Y-123979869D01*
X168717080Y-123979871D01*
X168715459Y-123994323D01*
X168694603Y-124180263D01*
X122381000Y-124180263D01*
X122381000Y-105664744D01*
X159645084Y-105664744D01*
X159684232Y-105795646D01*
X159760140Y-105909249D01*
X159765300Y-105913450D01*
X159765302Y-105913452D01*
X159766693Y-105914584D01*
X159767381Y-105915736D01*
X159769776Y-105918368D01*
X159769243Y-105918853D01*
X159797910Y-105966851D01*
X159799500Y-105983601D01*
X159799500Y-122615116D01*
X159778678Y-122672324D01*
X159774601Y-122676278D01*
X159774818Y-122676482D01*
X159770262Y-122681333D01*
X159765039Y-122685451D01*
X159761257Y-122690923D01*
X159761256Y-122690924D01*
X159758809Y-122694465D01*
X159687356Y-122797848D01*
X159646157Y-122928118D01*
X159645084Y-123064744D01*
X159684232Y-123195646D01*
X159760140Y-123309249D01*
X159866095Y-123395511D01*
X159992732Y-123446804D01*
X160044171Y-123451259D01*
X160122221Y-123458019D01*
X160122223Y-123458019D01*
X160128852Y-123458593D01*
X160135354Y-123457193D01*
X160135357Y-123457193D01*
X160255921Y-123431237D01*
X160255924Y-123431236D01*
X160262422Y-123429837D01*
X160268222Y-123426589D01*
X160268224Y-123426588D01*
X160375827Y-123366327D01*
X160375830Y-123366325D01*
X160381631Y-123363076D01*
X160475940Y-123264215D01*
X160537010Y-123141993D01*
X160538103Y-123135428D01*
X160558869Y-123010669D01*
X160558869Y-123010664D01*
X160559443Y-123007218D01*
X160559500Y-123000000D01*
X160539187Y-122864888D01*
X160480044Y-122741723D01*
X160424145Y-122681252D01*
X160400500Y-122620839D01*
X160400500Y-120000000D01*
X161644500Y-120000000D01*
X161665093Y-120235380D01*
X161666100Y-120239137D01*
X161666100Y-120239139D01*
X161706126Y-120388516D01*
X161726247Y-120463608D01*
X161826103Y-120677750D01*
X161961627Y-120871299D01*
X162128701Y-121038373D01*
X162322250Y-121173897D01*
X162536392Y-121273753D01*
X162540154Y-121274761D01*
X162760861Y-121333900D01*
X162760863Y-121333900D01*
X162764620Y-121334907D01*
X163000000Y-121355500D01*
X163235380Y-121334907D01*
X163239137Y-121333900D01*
X163239139Y-121333900D01*
X163459846Y-121274761D01*
X163463608Y-121273753D01*
X163677750Y-121173897D01*
X163871299Y-121038373D01*
X164038373Y-120871299D01*
X164173897Y-120677750D01*
X164273753Y-120463608D01*
X164293874Y-120388516D01*
X164333900Y-120239139D01*
X164333900Y-120239137D01*
X164334907Y-120235380D01*
X164355500Y-120000000D01*
X164352520Y-119965940D01*
X164368276Y-119907136D01*
X164378248Y-119895251D01*
X164896106Y-119377393D01*
X168416640Y-119377393D01*
X168426889Y-119441026D01*
X168428703Y-119448301D01*
X168500735Y-119659291D01*
X168503752Y-119666163D01*
X168610301Y-119861994D01*
X168614437Y-119868267D01*
X168752457Y-120043344D01*
X168757585Y-120048824D01*
X168923131Y-120198145D01*
X168929115Y-120202687D01*
X169117457Y-120321982D01*
X169124111Y-120325445D01*
X169329864Y-120411303D01*
X169337008Y-120413596D01*
X169516878Y-120454957D01*
X169567965Y-120488069D01*
X169585815Y-120546273D01*
X169562076Y-120602334D01*
X169522061Y-120627072D01*
X169354603Y-120676357D01*
X169345852Y-120680932D01*
X169175908Y-120769776D01*
X169175904Y-120769779D01*
X169172047Y-120771795D01*
X169011505Y-120900874D01*
X168919004Y-121011113D01*
X168894261Y-121040601D01*
X168879093Y-121058677D01*
X168779853Y-121239194D01*
X168778538Y-121243341D01*
X168778537Y-121243342D01*
X168718879Y-121431405D01*
X168718878Y-121431410D01*
X168717565Y-121435549D01*
X168717080Y-121439869D01*
X168717080Y-121439871D01*
X168715459Y-121454323D01*
X168694603Y-121640263D01*
X168711840Y-121845538D01*
X168768621Y-122043555D01*
X168862782Y-122226773D01*
X168990737Y-122388212D01*
X169147612Y-122521723D01*
X169151404Y-122523842D01*
X169151405Y-122523843D01*
X169323636Y-122620100D01*
X169323640Y-122620102D01*
X169327432Y-122622221D01*
X169331567Y-122623565D01*
X169331568Y-122623565D01*
X169519207Y-122684533D01*
X169519209Y-122684533D01*
X169523347Y-122685878D01*
X169727895Y-122710269D01*
X169732224Y-122709936D01*
X169732228Y-122709936D01*
X169928950Y-122694799D01*
X169928954Y-122694798D01*
X169933286Y-122694465D01*
X169937474Y-122693296D01*
X169937478Y-122693295D01*
X170072223Y-122655673D01*
X170131695Y-122639068D01*
X170135578Y-122637107D01*
X170135582Y-122637105D01*
X170224590Y-122592143D01*
X170315565Y-122546188D01*
X170403876Y-122477192D01*
X170474461Y-122422045D01*
X170474465Y-122422042D01*
X170477893Y-122419363D01*
X170612496Y-122263424D01*
X170714247Y-122084311D01*
X170729199Y-122039365D01*
X170777894Y-121892979D01*
X170779270Y-121888844D01*
X170805088Y-121684471D01*
X170805500Y-121655000D01*
X170785398Y-121449986D01*
X170750350Y-121333900D01*
X170727118Y-121256953D01*
X170727118Y-121256952D01*
X170725858Y-121252780D01*
X170723814Y-121248936D01*
X170723812Y-121248931D01*
X170631191Y-121074738D01*
X170629148Y-121070895D01*
X170498952Y-120911259D01*
X170444103Y-120865884D01*
X170343576Y-120782720D01*
X170343571Y-120782717D01*
X170340228Y-120779951D01*
X170159023Y-120681973D01*
X170136911Y-120675128D01*
X170088642Y-120660187D01*
X169981953Y-120627161D01*
X169933461Y-120590353D01*
X169919973Y-120530986D01*
X169947801Y-120476839D01*
X169998271Y-120453705D01*
X170013319Y-120452004D01*
X170020697Y-120450529D01*
X170234845Y-120388516D01*
X170241839Y-120385831D01*
X170442483Y-120288620D01*
X170448933Y-120284790D01*
X170630319Y-120155170D01*
X170636044Y-120150296D01*
X170792990Y-119991975D01*
X170797810Y-119986211D01*
X170925842Y-119803702D01*
X170929621Y-119797208D01*
X171025071Y-119595738D01*
X171027701Y-119588704D01*
X171086198Y-119379896D01*
X171084272Y-119372198D01*
X171079861Y-119369000D01*
X168430982Y-119369000D01*
X168418959Y-119373376D01*
X168416640Y-119377393D01*
X164896106Y-119377393D01*
X168542567Y-115730932D01*
X168597743Y-115705204D01*
X168656548Y-115720960D01*
X168691467Y-115770830D01*
X168694500Y-115793865D01*
X168694500Y-117425000D01*
X168710143Y-117503641D01*
X168754690Y-117570310D01*
X168821359Y-117614857D01*
X168900000Y-117630500D01*
X169353802Y-117630500D01*
X169411010Y-117651322D01*
X169441450Y-117704045D01*
X169430878Y-117764000D01*
X169384242Y-117803133D01*
X169372078Y-117806603D01*
X169362014Y-117808715D01*
X169354829Y-117810870D01*
X169147464Y-117892762D01*
X169140741Y-117896099D01*
X168950152Y-118011752D01*
X168944075Y-118016183D01*
X168775699Y-118162292D01*
X168770458Y-118167683D01*
X168629106Y-118340073D01*
X168624852Y-118346262D01*
X168514564Y-118540010D01*
X168511412Y-118546832D01*
X168435346Y-118756392D01*
X168433391Y-118763635D01*
X168418577Y-118845560D01*
X168420743Y-118858164D01*
X168424093Y-118861000D01*
X171071500Y-118861000D01*
X171083523Y-118856624D01*
X171084890Y-118854257D01*
X171084790Y-118851737D01*
X171036559Y-118665914D01*
X171034063Y-118658825D01*
X170942498Y-118455557D01*
X170938850Y-118449003D01*
X170814341Y-118264063D01*
X170809638Y-118258213D01*
X170655754Y-118096902D01*
X170650123Y-118091920D01*
X170471268Y-117958848D01*
X170464881Y-117954888D01*
X170266152Y-117853848D01*
X170259197Y-117851024D01*
X170109353Y-117804497D01*
X170060893Y-117767647D01*
X170047457Y-117708269D01*
X170075331Y-117654146D01*
X170135745Y-117630500D01*
X170600000Y-117630500D01*
X170678641Y-117614857D01*
X170745310Y-117570310D01*
X170789857Y-117503641D01*
X170805500Y-117425000D01*
X170805500Y-115725000D01*
X170789857Y-115646359D01*
X170745310Y-115579690D01*
X170678641Y-115535143D01*
X170600000Y-115519500D01*
X168968865Y-115519500D01*
X168911657Y-115498678D01*
X168881217Y-115445955D01*
X168891789Y-115386000D01*
X168905932Y-115367567D01*
X170281506Y-113991993D01*
X170292127Y-113982923D01*
X170293195Y-113982147D01*
X170305898Y-113972918D01*
X170352403Y-113921269D01*
X170355610Y-113917889D01*
X170370389Y-113903110D01*
X170383547Y-113886862D01*
X170386572Y-113883321D01*
X170429444Y-113835706D01*
X170432565Y-113832240D01*
X170440950Y-113817716D01*
X170448859Y-113806210D01*
X170456479Y-113796800D01*
X170456482Y-113796795D01*
X170459417Y-113793171D01*
X170490640Y-113731893D01*
X170492845Y-113727832D01*
X170524883Y-113672339D01*
X170527215Y-113668300D01*
X170532398Y-113652349D01*
X170537743Y-113639445D01*
X170543241Y-113628656D01*
X170543243Y-113628652D01*
X170545357Y-113624502D01*
X170563149Y-113558101D01*
X170564468Y-113553648D01*
X170585713Y-113488264D01*
X170587466Y-113471582D01*
X170590012Y-113457848D01*
X170593145Y-113446157D01*
X170593146Y-113446153D01*
X170594352Y-113441651D01*
X170597951Y-113372976D01*
X170598314Y-113368372D01*
X170600500Y-113347573D01*
X170600500Y-113326679D01*
X170600622Y-113322021D01*
X170604016Y-113257268D01*
X170604016Y-113257267D01*
X170604260Y-113252610D01*
X170601596Y-113235790D01*
X170600500Y-113221868D01*
X170600500Y-103878132D01*
X170601596Y-103864209D01*
X170603530Y-103851999D01*
X170604260Y-103847390D01*
X170600622Y-103777978D01*
X170600500Y-103773321D01*
X170600500Y-103752427D01*
X170598314Y-103731628D01*
X170597950Y-103727007D01*
X170594596Y-103663005D01*
X170594352Y-103658349D01*
X170590012Y-103642152D01*
X170587466Y-103628418D01*
X170586200Y-103616371D01*
X170585713Y-103611736D01*
X170564464Y-103546337D01*
X170563145Y-103541884D01*
X170546564Y-103480003D01*
X170545357Y-103475498D01*
X170543243Y-103471348D01*
X170543241Y-103471344D01*
X170537743Y-103460555D01*
X170532398Y-103447651D01*
X170528657Y-103436138D01*
X170527215Y-103431700D01*
X170492843Y-103372164D01*
X170490640Y-103368107D01*
X170459417Y-103306829D01*
X170456482Y-103303205D01*
X170456479Y-103303200D01*
X170448859Y-103293790D01*
X170440950Y-103282284D01*
X170432565Y-103267760D01*
X170386572Y-103216679D01*
X170383547Y-103213138D01*
X170371851Y-103198695D01*
X170371848Y-103198692D01*
X170370389Y-103196890D01*
X170355610Y-103182111D01*
X170352403Y-103178731D01*
X170309021Y-103130550D01*
X170309019Y-103130548D01*
X170305898Y-103127082D01*
X170292126Y-103117076D01*
X170281506Y-103108007D01*
X168726567Y-101553068D01*
X168700839Y-101497892D01*
X168700500Y-101490135D01*
X168700500Y-100346038D01*
X168721322Y-100288830D01*
X168726567Y-100283105D01*
X168838373Y-100171299D01*
X168973897Y-99977750D01*
X169073753Y-99763608D01*
X169134907Y-99535380D01*
X169155500Y-99300000D01*
X169134907Y-99064620D01*
X169073753Y-98836392D01*
X168973897Y-98622250D01*
X168838373Y-98428701D01*
X168671299Y-98261627D01*
X168477750Y-98126103D01*
X168263608Y-98026247D01*
X168232083Y-98017800D01*
X168039139Y-97966100D01*
X168039137Y-97966100D01*
X168035380Y-97965093D01*
X167800000Y-97944500D01*
X167564620Y-97965093D01*
X167560863Y-97966100D01*
X167560861Y-97966100D01*
X167367917Y-98017800D01*
X167336392Y-98026247D01*
X167122250Y-98126103D01*
X166928701Y-98261627D01*
X166761627Y-98428701D01*
X166626103Y-98622250D01*
X166526247Y-98836392D01*
X166465093Y-99064620D01*
X166444500Y-99300000D01*
X166465093Y-99535380D01*
X166526247Y-99763608D01*
X166626103Y-99977750D01*
X166761627Y-100171299D01*
X166873433Y-100283105D01*
X166899161Y-100338281D01*
X166899500Y-100346038D01*
X166899500Y-101821874D01*
X166898404Y-101835796D01*
X166895741Y-101852610D01*
X166895985Y-101857267D01*
X166895985Y-101857268D01*
X166899378Y-101922010D01*
X166899500Y-101926668D01*
X166899500Y-101947573D01*
X166899744Y-101949892D01*
X166899744Y-101949897D01*
X166901685Y-101968356D01*
X166902050Y-101972994D01*
X166905648Y-102041651D01*
X166906855Y-102046154D01*
X166906855Y-102046156D01*
X166909988Y-102057848D01*
X166912534Y-102071582D01*
X166914287Y-102088264D01*
X166935532Y-102153648D01*
X166936851Y-102158101D01*
X166954643Y-102224502D01*
X166956762Y-102228660D01*
X166962258Y-102239447D01*
X166967603Y-102252350D01*
X166972785Y-102268300D01*
X166975121Y-102272346D01*
X167007149Y-102327820D01*
X167009368Y-102331906D01*
X167040584Y-102393171D01*
X167043514Y-102396790D01*
X167043519Y-102396797D01*
X167051139Y-102406207D01*
X167059047Y-102417713D01*
X167065101Y-102428199D01*
X167065105Y-102428205D01*
X167067435Y-102432240D01*
X167113456Y-102483351D01*
X167116441Y-102486846D01*
X167129611Y-102503110D01*
X167144390Y-102517889D01*
X167147597Y-102521269D01*
X167190218Y-102568604D01*
X167194102Y-102572918D01*
X167207873Y-102582923D01*
X167218494Y-102591993D01*
X168773433Y-104146932D01*
X168799161Y-104202108D01*
X168799500Y-104209865D01*
X168799500Y-112890135D01*
X168778678Y-112947343D01*
X168773433Y-112953068D01*
X167677325Y-114049176D01*
X167622149Y-114074904D01*
X167563344Y-114059148D01*
X167528425Y-114009278D01*
X167533923Y-113954904D01*
X167531980Y-113954273D01*
X167534036Y-113947945D01*
X167537010Y-113941993D01*
X167538103Y-113935428D01*
X167558869Y-113810669D01*
X167558869Y-113810664D01*
X167559443Y-113807218D01*
X167559500Y-113800000D01*
X167539187Y-113664888D01*
X167526970Y-113639445D01*
X167487916Y-113558116D01*
X167480044Y-113541723D01*
X167387299Y-113441392D01*
X167269153Y-113372768D01*
X167136052Y-113341916D01*
X167023349Y-113349896D01*
X167006400Y-113351096D01*
X166999763Y-113351566D01*
X166892866Y-113392922D01*
X166831998Y-113394144D01*
X166797820Y-113372849D01*
X163880578Y-110455606D01*
X163854850Y-110400431D01*
X163854511Y-110392674D01*
X163854511Y-107806543D01*
X163854781Y-107802873D01*
X163856234Y-107798640D01*
X163854574Y-107754424D01*
X163854511Y-107751085D01*
X163854511Y-107727165D01*
X163853759Y-107723130D01*
X163853383Y-107719054D01*
X163853593Y-107719035D01*
X163853063Y-107714175D01*
X163852345Y-107695062D01*
X163852037Y-107686849D01*
X163848793Y-107679298D01*
X163848792Y-107679294D01*
X163847059Y-107675261D01*
X163841338Y-107656433D01*
X163839028Y-107644032D01*
X163824678Y-107620752D01*
X163818674Y-107609192D01*
X163810359Y-107589838D01*
X163807878Y-107584063D01*
X163802557Y-107577585D01*
X163798222Y-107573250D01*
X163785395Y-107557021D01*
X163780327Y-107548800D01*
X163757771Y-107531648D01*
X163748709Y-107523737D01*
X163435332Y-107210360D01*
X163409487Y-107153707D01*
X163409472Y-107153500D01*
X163409500Y-107150000D01*
X163389187Y-107014888D01*
X163330044Y-106891723D01*
X163237299Y-106791392D01*
X163119153Y-106722768D01*
X162986052Y-106691916D01*
X162872813Y-106699934D01*
X162856400Y-106701096D01*
X162849763Y-106701566D01*
X162843559Y-106703966D01*
X162843555Y-106703967D01*
X162817601Y-106714008D01*
X162756733Y-106715230D01*
X162709321Y-106677041D01*
X162696489Y-106631003D01*
X162696489Y-106219642D01*
X162717311Y-106162434D01*
X162770034Y-106131994D01*
X162818899Y-106137151D01*
X162836564Y-106144306D01*
X162836566Y-106144306D01*
X162842732Y-106146804D01*
X162900168Y-106151778D01*
X162972221Y-106158019D01*
X162972223Y-106158019D01*
X162978852Y-106158593D01*
X162985354Y-106157193D01*
X162985357Y-106157193D01*
X163105921Y-106131237D01*
X163105924Y-106131236D01*
X163112422Y-106129837D01*
X163118222Y-106126589D01*
X163118224Y-106126588D01*
X163225830Y-106066325D01*
X163225831Y-106066324D01*
X163231631Y-106063076D01*
X163265027Y-106028068D01*
X163319582Y-106001046D01*
X163329425Y-106000500D01*
X163697469Y-106000500D01*
X163701139Y-106000770D01*
X163705372Y-106002223D01*
X163713582Y-106001915D01*
X163713583Y-106001915D01*
X163749587Y-106000563D01*
X163752926Y-106000500D01*
X163776846Y-106000500D01*
X163780881Y-105999748D01*
X163784957Y-105999372D01*
X163784976Y-105999582D01*
X163789836Y-105999052D01*
X163796628Y-105998797D01*
X163817162Y-105998026D01*
X163824711Y-105994783D01*
X163824715Y-105994782D01*
X163828750Y-105993048D01*
X163847578Y-105987327D01*
X163859979Y-105985017D01*
X163866975Y-105980705D01*
X163866977Y-105980704D01*
X163883259Y-105970668D01*
X163894826Y-105964659D01*
X163904114Y-105960669D01*
X163919948Y-105953866D01*
X163926426Y-105948545D01*
X163930757Y-105944214D01*
X163946990Y-105931384D01*
X163948214Y-105930630D01*
X163948217Y-105930627D01*
X163955211Y-105926316D01*
X163972366Y-105903756D01*
X163980277Y-105894694D01*
X164802415Y-105072556D01*
X164857591Y-105046828D01*
X164865348Y-105046489D01*
X165982107Y-105046489D01*
X166039315Y-105067311D01*
X166069755Y-105120034D01*
X166066965Y-105162323D01*
X166046157Y-105228118D01*
X166045796Y-105274045D01*
X166045181Y-105352433D01*
X166045084Y-105364744D01*
X166046991Y-105371120D01*
X166046991Y-105371121D01*
X166049251Y-105378678D01*
X166084232Y-105495646D01*
X166160140Y-105609249D01*
X166165300Y-105613450D01*
X166165302Y-105613452D01*
X166166693Y-105614584D01*
X166167381Y-105615736D01*
X166169776Y-105618368D01*
X166169243Y-105618853D01*
X166197910Y-105666851D01*
X166199500Y-105683601D01*
X166199500Y-109007758D01*
X166178678Y-109064966D01*
X166125955Y-109095406D01*
X166116790Y-109096536D01*
X166068055Y-109099986D01*
X166052380Y-109101096D01*
X166045743Y-109101566D01*
X166039537Y-109103967D01*
X165924520Y-109148464D01*
X165924519Y-109148465D01*
X165918317Y-109150864D01*
X165913095Y-109154981D01*
X165913091Y-109154983D01*
X165844256Y-109209249D01*
X165811019Y-109235451D01*
X165733336Y-109347848D01*
X165731329Y-109354194D01*
X165703800Y-109441241D01*
X165692137Y-109478118D01*
X165691808Y-109519984D01*
X165691560Y-109551650D01*
X165691064Y-109614744D01*
X165730212Y-109745646D01*
X165806120Y-109859249D01*
X165912075Y-109945511D01*
X166038712Y-109996804D01*
X166096148Y-110001778D01*
X166168201Y-110008019D01*
X166168203Y-110008019D01*
X166174832Y-110008593D01*
X166181334Y-110007193D01*
X166181337Y-110007193D01*
X166301901Y-109981237D01*
X166301904Y-109981236D01*
X166308402Y-109979837D01*
X166314202Y-109976589D01*
X166314204Y-109976588D01*
X166421807Y-109916327D01*
X166421810Y-109916325D01*
X166427611Y-109913076D01*
X166521920Y-109814215D01*
X166582990Y-109691993D01*
X166584083Y-109685428D01*
X166604849Y-109560669D01*
X166604849Y-109560664D01*
X166605423Y-109557218D01*
X166605467Y-109551650D01*
X166605679Y-109551081D01*
X166605752Y-109550240D01*
X166605985Y-109550260D01*
X166626740Y-109494608D01*
X166631531Y-109489420D01*
X166675345Y-109445606D01*
X166678126Y-109443206D01*
X166682147Y-109441241D01*
X166712216Y-109408826D01*
X166714531Y-109406421D01*
X166731469Y-109389483D01*
X166733784Y-109386109D01*
X166736406Y-109382953D01*
X166736575Y-109383094D01*
X166739627Y-109379277D01*
X166758227Y-109359225D01*
X166762901Y-109347510D01*
X166772171Y-109330149D01*
X166774655Y-109326528D01*
X166774656Y-109326525D01*
X166779304Y-109319750D01*
X166781201Y-109311758D01*
X166781202Y-109311755D01*
X166785617Y-109293149D01*
X166789546Y-109280725D01*
X166799682Y-109255319D01*
X166800500Y-109246976D01*
X166800500Y-109240854D01*
X166802906Y-109220302D01*
X166803238Y-109218902D01*
X166803238Y-109218900D01*
X166805136Y-109210903D01*
X166801313Y-109182812D01*
X166800500Y-109170811D01*
X166800500Y-108590337D01*
X166821322Y-108533129D01*
X166874045Y-108502689D01*
X166934000Y-108513261D01*
X166952433Y-108527404D01*
X167269465Y-108844436D01*
X167295193Y-108899612D01*
X167295529Y-108908068D01*
X167295084Y-108964744D01*
X167334232Y-109095646D01*
X167410140Y-109209249D01*
X167516095Y-109295511D01*
X167642732Y-109346804D01*
X167698016Y-109351592D01*
X167772221Y-109358019D01*
X167772223Y-109358019D01*
X167778852Y-109358593D01*
X167785354Y-109357193D01*
X167785357Y-109357193D01*
X167905921Y-109331237D01*
X167905924Y-109331236D01*
X167912422Y-109329837D01*
X167918222Y-109326589D01*
X167918224Y-109326588D01*
X168025827Y-109266327D01*
X168025830Y-109266325D01*
X168031631Y-109263076D01*
X168125940Y-109164215D01*
X168187010Y-109041993D01*
X168188103Y-109035428D01*
X168208869Y-108910669D01*
X168208869Y-108910664D01*
X168209443Y-108907218D01*
X168209500Y-108900000D01*
X168189187Y-108764888D01*
X168130044Y-108641723D01*
X168037299Y-108541392D01*
X167919153Y-108472768D01*
X167786052Y-108441916D01*
X167779423Y-108442385D01*
X167779419Y-108442385D01*
X167761965Y-108443621D01*
X167703430Y-108426890D01*
X167692748Y-108417776D01*
X167422556Y-108147584D01*
X167396828Y-108092408D01*
X167396489Y-108084651D01*
X167396489Y-106469642D01*
X167417311Y-106412434D01*
X167470034Y-106381994D01*
X167518899Y-106387151D01*
X167536564Y-106394306D01*
X167536566Y-106394306D01*
X167542732Y-106396804D01*
X167600168Y-106401778D01*
X167672221Y-106408019D01*
X167672223Y-106408019D01*
X167678852Y-106408593D01*
X167685354Y-106407193D01*
X167685357Y-106407193D01*
X167805921Y-106381237D01*
X167805924Y-106381236D01*
X167812422Y-106379837D01*
X167818222Y-106376589D01*
X167818224Y-106376588D01*
X167925827Y-106316327D01*
X167925830Y-106316325D01*
X167931631Y-106313076D01*
X168025940Y-106214215D01*
X168087010Y-106091993D01*
X168088103Y-106085428D01*
X168108869Y-105960669D01*
X168108869Y-105960664D01*
X168109443Y-105957218D01*
X168109500Y-105950000D01*
X168089187Y-105814888D01*
X168076887Y-105789272D01*
X168032922Y-105697717D01*
X168030044Y-105691723D01*
X167974145Y-105631252D01*
X167950500Y-105570839D01*
X167950500Y-105116881D01*
X167950770Y-105113211D01*
X167952223Y-105108978D01*
X167950563Y-105064762D01*
X167950500Y-105061423D01*
X167950500Y-105037503D01*
X167949748Y-105033468D01*
X167949372Y-105029392D01*
X167949582Y-105029373D01*
X167949052Y-105024513D01*
X167948334Y-105005400D01*
X167948026Y-104997187D01*
X167944783Y-104989638D01*
X167944782Y-104989634D01*
X167943048Y-104985599D01*
X167937327Y-104966771D01*
X167935017Y-104954370D01*
X167930705Y-104947374D01*
X167930704Y-104947372D01*
X167920668Y-104931090D01*
X167914659Y-104919523D01*
X167906347Y-104900176D01*
X167903866Y-104894401D01*
X167898545Y-104887923D01*
X167894214Y-104883592D01*
X167881384Y-104867359D01*
X167880630Y-104866135D01*
X167880627Y-104866132D01*
X167876316Y-104859138D01*
X167853757Y-104841983D01*
X167844697Y-104834074D01*
X167181245Y-104170622D01*
X167178846Y-104167842D01*
X167176881Y-104163822D01*
X167144466Y-104133753D01*
X167142061Y-104131438D01*
X167125123Y-104114500D01*
X167121749Y-104112185D01*
X167118593Y-104109563D01*
X167118734Y-104109394D01*
X167114917Y-104106342D01*
X167094865Y-104087742D01*
X167083154Y-104083070D01*
X167065790Y-104073798D01*
X167062168Y-104071314D01*
X167055391Y-104066665D01*
X167028783Y-104060350D01*
X167016362Y-104056421D01*
X166990959Y-104046287D01*
X166982616Y-104045469D01*
X166976494Y-104045469D01*
X166955944Y-104043064D01*
X166955869Y-104043046D01*
X166946543Y-104040833D01*
X166938401Y-104041941D01*
X166938400Y-104041941D01*
X166918453Y-104044656D01*
X166906451Y-104045469D01*
X164556562Y-104045469D01*
X164552892Y-104045199D01*
X164548659Y-104043746D01*
X164540449Y-104044054D01*
X164540448Y-104044054D01*
X164504443Y-104045406D01*
X164501104Y-104045469D01*
X164477185Y-104045469D01*
X164473155Y-104046220D01*
X164469069Y-104046597D01*
X164469051Y-104046400D01*
X164464192Y-104046917D01*
X164454461Y-104047283D01*
X164436868Y-104047943D01*
X164425281Y-104052921D01*
X164406449Y-104058643D01*
X164394052Y-104060952D01*
X164387058Y-104065263D01*
X164387053Y-104065265D01*
X164370772Y-104075301D01*
X164359207Y-104081309D01*
X164334083Y-104092103D01*
X164327605Y-104097424D01*
X164323274Y-104101755D01*
X164307041Y-104114585D01*
X164305814Y-104115341D01*
X164305811Y-104115344D01*
X164298820Y-104119653D01*
X164293849Y-104126190D01*
X164293847Y-104126192D01*
X164281660Y-104142219D01*
X164273747Y-104151282D01*
X163851595Y-104573433D01*
X163796420Y-104599161D01*
X163788663Y-104599500D01*
X163329943Y-104599500D01*
X163272735Y-104578678D01*
X163264588Y-104570913D01*
X163256137Y-104561771D01*
X163237299Y-104541392D01*
X163119153Y-104472768D01*
X162986052Y-104441916D01*
X162849763Y-104451566D01*
X162849680Y-104450399D01*
X162795532Y-104443368D01*
X162754322Y-104398557D01*
X162751557Y-104337740D01*
X162773553Y-104301418D01*
X164380510Y-102694461D01*
X164383293Y-102692060D01*
X164387314Y-102690094D01*
X164417395Y-102657666D01*
X164419711Y-102655260D01*
X164436635Y-102638336D01*
X164438955Y-102634954D01*
X164441574Y-102631801D01*
X164441752Y-102631949D01*
X164444800Y-102628122D01*
X164457807Y-102614101D01*
X164457808Y-102614100D01*
X164463394Y-102608078D01*
X164468068Y-102596363D01*
X164477339Y-102579001D01*
X164484471Y-102568604D01*
X164490784Y-102542002D01*
X164494715Y-102529573D01*
X164502522Y-102510004D01*
X164504849Y-102504172D01*
X164505667Y-102495829D01*
X164505667Y-102489704D01*
X164508072Y-102469154D01*
X164508404Y-102467754D01*
X164510302Y-102459757D01*
X164506480Y-102431674D01*
X164505667Y-102419672D01*
X164505667Y-96069327D01*
X164530270Y-96007894D01*
X164534252Y-96003720D01*
X164571938Y-95964215D01*
X164633008Y-95841993D01*
X164634101Y-95835428D01*
X164654867Y-95710669D01*
X164654867Y-95710664D01*
X164655441Y-95707218D01*
X164655498Y-95700000D01*
X164635185Y-95564888D01*
X164576042Y-95441723D01*
X164483297Y-95341392D01*
X164365151Y-95272768D01*
X164232050Y-95241916D01*
X164118811Y-95249934D01*
X164102398Y-95251096D01*
X164095761Y-95251566D01*
X164089555Y-95253967D01*
X163974538Y-95298464D01*
X163974537Y-95298465D01*
X163968335Y-95300864D01*
X163963113Y-95304981D01*
X163963109Y-95304983D01*
X163866263Y-95381331D01*
X163861037Y-95385451D01*
X163783354Y-95497848D01*
X163742155Y-95628118D01*
X163741082Y-95764744D01*
X163780230Y-95895646D01*
X163856138Y-96009249D01*
X163861294Y-96013447D01*
X163861297Y-96013450D01*
X163871857Y-96022047D01*
X163903076Y-96074312D01*
X163904667Y-96091066D01*
X163904667Y-102283497D01*
X163883845Y-102340705D01*
X163878599Y-102346430D01*
X162220645Y-104004383D01*
X162217862Y-104006785D01*
X162213842Y-104008750D01*
X162208254Y-104014774D01*
X162183774Y-104041164D01*
X162181458Y-104043570D01*
X162164520Y-104060508D01*
X162162205Y-104063882D01*
X162159583Y-104067038D01*
X162159414Y-104066897D01*
X162156362Y-104070714D01*
X162137762Y-104090766D01*
X162134718Y-104098397D01*
X162133091Y-104102475D01*
X162123818Y-104119841D01*
X162121334Y-104123463D01*
X162116685Y-104130240D01*
X162114788Y-104138233D01*
X162110370Y-104156848D01*
X162106441Y-104169269D01*
X162096307Y-104194672D01*
X162095489Y-104203015D01*
X162095489Y-104209137D01*
X162093084Y-104229687D01*
X162090853Y-104239088D01*
X162091961Y-104247230D01*
X162091961Y-104247231D01*
X162094676Y-104267178D01*
X162095489Y-104279180D01*
X162095489Y-112043458D01*
X162095219Y-112047128D01*
X162093766Y-112051361D01*
X162094074Y-112059571D01*
X162094074Y-112059572D01*
X162095426Y-112095576D01*
X162095489Y-112098915D01*
X162095489Y-112122835D01*
X162096241Y-112126870D01*
X162096617Y-112130946D01*
X162096407Y-112130965D01*
X162096937Y-112135825D01*
X162097963Y-112163151D01*
X162101206Y-112170700D01*
X162101207Y-112170704D01*
X162102941Y-112174739D01*
X162108662Y-112193567D01*
X162110972Y-112205968D01*
X162115284Y-112212964D01*
X162115285Y-112212966D01*
X162125321Y-112229248D01*
X162131329Y-112240813D01*
X162142123Y-112265937D01*
X162147444Y-112272415D01*
X162151775Y-112276746D01*
X162164605Y-112292979D01*
X162165359Y-112294203D01*
X162165362Y-112294206D01*
X162169673Y-112301200D01*
X162176214Y-112306174D01*
X162176215Y-112306175D01*
X162192233Y-112318355D01*
X162201295Y-112326266D01*
X164269465Y-114394436D01*
X164295193Y-114449612D01*
X164295529Y-114458068D01*
X164295084Y-114514744D01*
X164334232Y-114645646D01*
X164410140Y-114759249D01*
X164516095Y-114845511D01*
X164642732Y-114896804D01*
X164700168Y-114901778D01*
X164772221Y-114908019D01*
X164772223Y-114908019D01*
X164778852Y-114908593D01*
X164785354Y-114907193D01*
X164785357Y-114907193D01*
X164905921Y-114881237D01*
X164905924Y-114881236D01*
X164912422Y-114879837D01*
X164918222Y-114876589D01*
X164918224Y-114876588D01*
X165025827Y-114816327D01*
X165025830Y-114816325D01*
X165031631Y-114813076D01*
X165125940Y-114714215D01*
X165187010Y-114591993D01*
X165188103Y-114585428D01*
X165208869Y-114460669D01*
X165208869Y-114460664D01*
X165209443Y-114457218D01*
X165209500Y-114450000D01*
X165189187Y-114314888D01*
X165130044Y-114191723D01*
X165037299Y-114091392D01*
X164919153Y-114022768D01*
X164786052Y-113991916D01*
X164779423Y-113992385D01*
X164779419Y-113992385D01*
X164761965Y-113993621D01*
X164703430Y-113976890D01*
X164692748Y-113967776D01*
X162722556Y-111997584D01*
X162696828Y-111942408D01*
X162696489Y-111934651D01*
X162696489Y-107669642D01*
X162717311Y-107612434D01*
X162770034Y-107581994D01*
X162818899Y-107587151D01*
X162836564Y-107594306D01*
X162836566Y-107594306D01*
X162842732Y-107596804D01*
X162951757Y-107606246D01*
X163007010Y-107631981D01*
X163227444Y-107852415D01*
X163253172Y-107907591D01*
X163253511Y-107915348D01*
X163253511Y-110501480D01*
X163253241Y-110505150D01*
X163251788Y-110509383D01*
X163252096Y-110517593D01*
X163252096Y-110517594D01*
X163253448Y-110553598D01*
X163253511Y-110556937D01*
X163253511Y-110580857D01*
X163254263Y-110584892D01*
X163254639Y-110588968D01*
X163254429Y-110588987D01*
X163254959Y-110593847D01*
X163255985Y-110621173D01*
X163259228Y-110628722D01*
X163259229Y-110628726D01*
X163260963Y-110632761D01*
X163266684Y-110651589D01*
X163268994Y-110663990D01*
X163273306Y-110670986D01*
X163273307Y-110670988D01*
X163283343Y-110687270D01*
X163289351Y-110698835D01*
X163300145Y-110723959D01*
X163305466Y-110730437D01*
X163309797Y-110734768D01*
X163322627Y-110751001D01*
X163323381Y-110752225D01*
X163323384Y-110752228D01*
X163327695Y-110759222D01*
X163334236Y-110764196D01*
X163334237Y-110764197D01*
X163350255Y-110776377D01*
X163359317Y-110784288D01*
X166550372Y-113975343D01*
X166552773Y-113978126D01*
X166554739Y-113982147D01*
X166560763Y-113987735D01*
X166587167Y-114012228D01*
X166589573Y-114014544D01*
X166606498Y-114031469D01*
X166609880Y-114033789D01*
X166613027Y-114036404D01*
X166612904Y-114036552D01*
X166616702Y-114039626D01*
X166636755Y-114058227D01*
X166648470Y-114062901D01*
X166665830Y-114072170D01*
X166676230Y-114079305D01*
X166700761Y-114085126D01*
X166702836Y-114085619D01*
X166715265Y-114089550D01*
X166740661Y-114099682D01*
X166740110Y-114101064D01*
X166765693Y-114113770D01*
X166866095Y-114195511D01*
X166992732Y-114246804D01*
X167050168Y-114251778D01*
X167122221Y-114258019D01*
X167122223Y-114258019D01*
X167128852Y-114258593D01*
X167135354Y-114257193D01*
X167135357Y-114257193D01*
X167262422Y-114229837D01*
X167262861Y-114231877D01*
X167314812Y-114231245D01*
X167361921Y-114269806D01*
X167373223Y-114329628D01*
X167348326Y-114378175D01*
X163104749Y-118621752D01*
X163049573Y-118647480D01*
X163034062Y-118647480D01*
X163000000Y-118644500D01*
X162764620Y-118665093D01*
X162760863Y-118666100D01*
X162760861Y-118666100D01*
X162567917Y-118717800D01*
X162536392Y-118726247D01*
X162322250Y-118826103D01*
X162128701Y-118961627D01*
X161961627Y-119128701D01*
X161826103Y-119322250D01*
X161726247Y-119536392D01*
X161665093Y-119764620D01*
X161644500Y-120000000D01*
X160400500Y-120000000D01*
X160400500Y-105978940D01*
X160425102Y-105917508D01*
X160471346Y-105869031D01*
X160471347Y-105869030D01*
X160475940Y-105864215D01*
X160537010Y-105741993D01*
X160544380Y-105697717D01*
X160558869Y-105610669D01*
X160558869Y-105610664D01*
X160559443Y-105607218D01*
X160559500Y-105600000D01*
X160547739Y-105521774D01*
X160540176Y-105471465D01*
X160540176Y-105471464D01*
X160539187Y-105464888D01*
X160480044Y-105341723D01*
X160387299Y-105241392D01*
X160269153Y-105172768D01*
X160136052Y-105141916D01*
X160022813Y-105149934D01*
X160006400Y-105151096D01*
X159999763Y-105151566D01*
X159993557Y-105153967D01*
X159878540Y-105198464D01*
X159878539Y-105198465D01*
X159872337Y-105200864D01*
X159867115Y-105204981D01*
X159867111Y-105204983D01*
X159770265Y-105281331D01*
X159765039Y-105285451D01*
X159687356Y-105397848D01*
X159685349Y-105404194D01*
X159656427Y-105495646D01*
X159646157Y-105528118D01*
X159645084Y-105664744D01*
X122381000Y-105664744D01*
X122381000Y-94422702D01*
X163342202Y-94422702D01*
X163361982Y-94572946D01*
X163419974Y-94712952D01*
X163512227Y-94833177D01*
X163632452Y-94925430D01*
X163772458Y-94983422D01*
X163922702Y-95003202D01*
X164072946Y-94983422D01*
X164212952Y-94925430D01*
X164333177Y-94833177D01*
X164352481Y-94808020D01*
X164403824Y-94775312D01*
X164423087Y-94773202D01*
X166190655Y-94773202D01*
X166247863Y-94794024D01*
X166253587Y-94799269D01*
X166711318Y-95256999D01*
X166711340Y-95257022D01*
X168148332Y-96694014D01*
X168174060Y-96749190D01*
X168173638Y-96768562D01*
X168170261Y-96794218D01*
X168169500Y-96800000D01*
X168189280Y-96950244D01*
X168247272Y-97090250D01*
X168339525Y-97210475D01*
X168459750Y-97302728D01*
X168599756Y-97360720D01*
X168750000Y-97380500D01*
X168900244Y-97360720D01*
X169040250Y-97302728D01*
X169160475Y-97210475D01*
X169252728Y-97090250D01*
X169310720Y-96950244D01*
X169330500Y-96800000D01*
X169310720Y-96649756D01*
X169252728Y-96509750D01*
X169160475Y-96389525D01*
X169040250Y-96297272D01*
X168900244Y-96239280D01*
X168750000Y-96219500D01*
X168744219Y-96220261D01*
X168744218Y-96220261D01*
X168718562Y-96223638D01*
X168659126Y-96210460D01*
X168644014Y-96198332D01*
X166654207Y-94208525D01*
X166642372Y-94193869D01*
X166639636Y-94189631D01*
X166639631Y-94189626D01*
X166635641Y-94183446D01*
X166629862Y-94178891D01*
X166629861Y-94178889D01*
X166609000Y-94162444D01*
X166603868Y-94157884D01*
X166601892Y-94156210D01*
X166599302Y-94153620D01*
X166585005Y-94143404D01*
X166581675Y-94140903D01*
X166543965Y-94111175D01*
X166537527Y-94108914D01*
X166534655Y-94107422D01*
X166529100Y-94103453D01*
X166483091Y-94089694D01*
X166479125Y-94088405D01*
X166433823Y-94072496D01*
X166430429Y-94072202D01*
X166428510Y-94072202D01*
X166426859Y-94072131D01*
X166423379Y-94071837D01*
X166417258Y-94070006D01*
X166363110Y-94072133D01*
X166359617Y-94072202D01*
X164423087Y-94072202D01*
X164365879Y-94051380D01*
X164352485Y-94037389D01*
X164333177Y-94012227D01*
X164212952Y-93919974D01*
X164072946Y-93861982D01*
X163922702Y-93842202D01*
X163772458Y-93861982D01*
X163632452Y-93919974D01*
X163512227Y-94012227D01*
X163508672Y-94016860D01*
X163432808Y-94115727D01*
X163419974Y-94132452D01*
X163361982Y-94272458D01*
X163342202Y-94422702D01*
X122381000Y-94422702D01*
X122381000Y-82093026D01*
X122383046Y-82074322D01*
X122384775Y-82069491D01*
X122385652Y-82060005D01*
X122386671Y-81886899D01*
X122386763Y-81883348D01*
X122390620Y-81799453D01*
X122390962Y-81794737D01*
X122416121Y-81541619D01*
X122416714Y-81536929D01*
X122426704Y-81471797D01*
X122427545Y-81467142D01*
X122429486Y-81457825D01*
X122479413Y-81218112D01*
X122480498Y-81213520D01*
X122497349Y-81149787D01*
X122498679Y-81145249D01*
X122501821Y-81135497D01*
X122527726Y-81055076D01*
X122576657Y-80903173D01*
X122578225Y-80898712D01*
X122601748Y-80837109D01*
X122603552Y-80832738D01*
X122706785Y-80600260D01*
X122708818Y-80595992D01*
X122718917Y-80576161D01*
X122738719Y-80537277D01*
X122740966Y-80533141D01*
X122868296Y-80312894D01*
X122870770Y-80308866D01*
X122906730Y-80253655D01*
X122909389Y-80249799D01*
X123059366Y-80044296D01*
X123062252Y-80040556D01*
X123103885Y-79989448D01*
X123106968Y-79985862D01*
X123215706Y-79865988D01*
X123277865Y-79797464D01*
X123281127Y-79794054D01*
X123321823Y-79753720D01*
X123327944Y-79747654D01*
X123331366Y-79744437D01*
X123500337Y-79593893D01*
X123521314Y-79575204D01*
X123524927Y-79572154D01*
X123576382Y-79530997D01*
X123580152Y-79528142D01*
X123786952Y-79380032D01*
X123790867Y-79377383D01*
X123846408Y-79341909D01*
X123850461Y-79339469D01*
X123957591Y-79278806D01*
X124071823Y-79214122D01*
X124075978Y-79211913D01*
X124134992Y-79182520D01*
X124139237Y-79180545D01*
X124372665Y-79079377D01*
X124377010Y-79077629D01*
X124438833Y-79054653D01*
X124443266Y-79053139D01*
X124555656Y-79018041D01*
X124686091Y-78977309D01*
X124690640Y-78976020D01*
X124754497Y-78959745D01*
X124759102Y-78958700D01*
X125008633Y-78909050D01*
X125013222Y-78908264D01*
X125096336Y-78896274D01*
X125099850Y-78895838D01*
X125171786Y-78888386D01*
X125238836Y-78881440D01*
X125247965Y-78880966D01*
X128089745Y-78879610D01*
X129176961Y-78879091D01*
X129234179Y-78899886D01*
X129264644Y-78952594D01*
X129254100Y-79012554D01*
X129203395Y-79053088D01*
X129041580Y-79103333D01*
X128929941Y-79137998D01*
X128612832Y-79277530D01*
X128610644Y-79278806D01*
X128315742Y-79450787D01*
X128315733Y-79450793D01*
X128313557Y-79452062D01*
X128311542Y-79453567D01*
X128311534Y-79453572D01*
X128125844Y-79592233D01*
X128035962Y-79659351D01*
X128034126Y-79661078D01*
X128034119Y-79661084D01*
X127945525Y-79744426D01*
X127783619Y-79896733D01*
X127559769Y-80161154D01*
X127367292Y-80449217D01*
X127208662Y-80757216D01*
X127085918Y-81081193D01*
X127085302Y-81083619D01*
X127085300Y-81083625D01*
X127070994Y-81139956D01*
X127000638Y-81416983D01*
X127000298Y-81419480D01*
X127000297Y-81419486D01*
X126955990Y-81745051D01*
X126953919Y-81760268D01*
X126953864Y-81762778D01*
X126953864Y-81762781D01*
X126947078Y-82073786D01*
X126946361Y-82106635D01*
X126978062Y-82451632D01*
X127048614Y-82790822D01*
X127049401Y-82793209D01*
X127049403Y-82793216D01*
X127057882Y-82818928D01*
X127157109Y-83119844D01*
X127302154Y-83434470D01*
X127481882Y-83730654D01*
X127693985Y-84004588D01*
X127935734Y-84252751D01*
X127957677Y-84270679D01*
X128202063Y-84470351D01*
X128202069Y-84470356D01*
X128204022Y-84471951D01*
X128495400Y-84659372D01*
X128806121Y-84812603D01*
X128808483Y-84813451D01*
X128808490Y-84813454D01*
X129017502Y-84888497D01*
X129132191Y-84929674D01*
X129469418Y-85009080D01*
X129813466Y-85049801D01*
X130017434Y-85050691D01*
X130157388Y-85051302D01*
X130159913Y-85051313D01*
X130273059Y-85038921D01*
X130501787Y-85013872D01*
X130501795Y-85013871D01*
X130504303Y-85013596D01*
X130506769Y-85013038D01*
X130506775Y-85013037D01*
X130682158Y-84973351D01*
X130842210Y-84937135D01*
X130844583Y-84936306D01*
X130844591Y-84936304D01*
X131166898Y-84823749D01*
X131169289Y-84822914D01*
X131481336Y-84672401D01*
X131504157Y-84658002D01*
X131772210Y-84488873D01*
X131772214Y-84488870D01*
X131774338Y-84487530D01*
X131795743Y-84470351D01*
X132042566Y-84272255D01*
X132042571Y-84272250D01*
X132044529Y-84270679D01*
X132288434Y-84024636D01*
X132289988Y-84022665D01*
X132289994Y-84022658D01*
X132403727Y-83878388D01*
X132502919Y-83752563D01*
X132685226Y-83457959D01*
X132833010Y-83144610D01*
X132944373Y-82816547D01*
X133017882Y-82477986D01*
X133052592Y-82133279D01*
X133055500Y-82000000D01*
X133049079Y-81886911D01*
X133036002Y-81656625D01*
X133036002Y-81656624D01*
X133035859Y-81654108D01*
X133004532Y-81471797D01*
X132977617Y-81315157D01*
X132977616Y-81315152D01*
X132977188Y-81312662D01*
X132880241Y-80980053D01*
X132879265Y-80977725D01*
X132747244Y-80662891D01*
X132747242Y-80662887D01*
X132746265Y-80660557D01*
X132576983Y-80358281D01*
X132501663Y-80253655D01*
X132376042Y-80079158D01*
X132376041Y-80079157D01*
X132374569Y-80077112D01*
X132141628Y-79820663D01*
X131881154Y-79592233D01*
X131864528Y-79580699D01*
X131598559Y-79396190D01*
X131598552Y-79396186D01*
X131596494Y-79394758D01*
X131291310Y-79230777D01*
X131288975Y-79229846D01*
X131288972Y-79229844D01*
X130971871Y-79103333D01*
X130971865Y-79103331D01*
X130969524Y-79102397D01*
X130967091Y-79101734D01*
X130967086Y-79101732D01*
X130830079Y-79064380D01*
X130788985Y-79053177D01*
X130739270Y-79018041D01*
X130723769Y-78959167D01*
X130749739Y-78904105D01*
X130805026Y-78878617D01*
X130812354Y-78878311D01*
X135739427Y-78875960D01*
X144910959Y-78871583D01*
X144968176Y-78892378D01*
X144998641Y-78945086D01*
X145000000Y-78960583D01*
X145000000Y-85000000D01*
X156000000Y-85000000D01*
X156000000Y-78955250D01*
X156020822Y-78898042D01*
X156073545Y-78867602D01*
X156088958Y-78866250D01*
X158500344Y-78865099D01*
X162227753Y-78863320D01*
X162284969Y-78884115D01*
X162315434Y-78936823D01*
X162304890Y-78996783D01*
X162254185Y-79037317D01*
X162041580Y-79103333D01*
X161929941Y-79137998D01*
X161612832Y-79277530D01*
X161610644Y-79278806D01*
X161315742Y-79450787D01*
X161315733Y-79450793D01*
X161313557Y-79452062D01*
X161311542Y-79453567D01*
X161311534Y-79453572D01*
X161125844Y-79592233D01*
X161035962Y-79659351D01*
X161034126Y-79661078D01*
X161034119Y-79661084D01*
X160945525Y-79744426D01*
X160783619Y-79896733D01*
X160559769Y-80161154D01*
X160367292Y-80449217D01*
X160208662Y-80757216D01*
X160085918Y-81081193D01*
X160085302Y-81083619D01*
X160085300Y-81083625D01*
X160070994Y-81139956D01*
X160000638Y-81416983D01*
X160000298Y-81419480D01*
X160000297Y-81419486D01*
X159955990Y-81745051D01*
X159953919Y-81760268D01*
X159953864Y-81762778D01*
X159953864Y-81762781D01*
X159947078Y-82073786D01*
X159946361Y-82106635D01*
X159978062Y-82451632D01*
X160048614Y-82790822D01*
X160049401Y-82793209D01*
X160049403Y-82793216D01*
X160057882Y-82818928D01*
X160157109Y-83119844D01*
X160302154Y-83434470D01*
X160481882Y-83730654D01*
X160693985Y-84004588D01*
X160935734Y-84252751D01*
X160957677Y-84270679D01*
X161202063Y-84470351D01*
X161202069Y-84470356D01*
X161204022Y-84471951D01*
X161495400Y-84659372D01*
X161806121Y-84812603D01*
X161808483Y-84813451D01*
X161808490Y-84813454D01*
X162017502Y-84888497D01*
X162132191Y-84929674D01*
X162469418Y-85009080D01*
X162813466Y-85049801D01*
X163017434Y-85050691D01*
X163157388Y-85051302D01*
X163159913Y-85051313D01*
X163273059Y-85038921D01*
X163501787Y-85013872D01*
X163501795Y-85013871D01*
X163504303Y-85013596D01*
X163506769Y-85013038D01*
X163506775Y-85013037D01*
X163682158Y-84973351D01*
X163842210Y-84937135D01*
X163844583Y-84936306D01*
X163844591Y-84936304D01*
X164166898Y-84823749D01*
X164169289Y-84822914D01*
X164481336Y-84672401D01*
X164504157Y-84658002D01*
X164772210Y-84488873D01*
X164772214Y-84488870D01*
X164774338Y-84487530D01*
X164795743Y-84470351D01*
X165042566Y-84272255D01*
X165042571Y-84272250D01*
X165044529Y-84270679D01*
X165288434Y-84024636D01*
X165289988Y-84022665D01*
X165289994Y-84022658D01*
X165403727Y-83878388D01*
X165502919Y-83752563D01*
X165685226Y-83457959D01*
X165833010Y-83144610D01*
X165944373Y-82816547D01*
X166017882Y-82477986D01*
X166052592Y-82133279D01*
X166055500Y-82000000D01*
X166049079Y-81886911D01*
X166036002Y-81656625D01*
X166036002Y-81656624D01*
X166035859Y-81654108D01*
X166004532Y-81471797D01*
X165977617Y-81315157D01*
X165977616Y-81315152D01*
X165977188Y-81312662D01*
X165880241Y-80980053D01*
X165879265Y-80977725D01*
X165747244Y-80662891D01*
X165747242Y-80662887D01*
X165746265Y-80660557D01*
X165576983Y-80358281D01*
X165501663Y-80253655D01*
X165376042Y-80079158D01*
X165376041Y-80079157D01*
X165374569Y-80077112D01*
X165141628Y-79820663D01*
X164881154Y-79592233D01*
X164864528Y-79580699D01*
X164598559Y-79396190D01*
X164598552Y-79396186D01*
X164596494Y-79394758D01*
X164291310Y-79230777D01*
X164288975Y-79229846D01*
X164288972Y-79229844D01*
X163971871Y-79103333D01*
X163971865Y-79103331D01*
X163969524Y-79102397D01*
X163967091Y-79101734D01*
X163967086Y-79101732D01*
X163731330Y-79037458D01*
X163681613Y-79002322D01*
X163666113Y-78943448D01*
X163692083Y-78888386D01*
X163747370Y-78862898D01*
X163754698Y-78862592D01*
X168405269Y-78860373D01*
X168423012Y-78862369D01*
G37*
G04 #@! TD.AperFunction*
M02*
