M48
; DRILL file {KiCad (5.99.0-9568-gb9d26a55f2)} date 03/17/21 08:29:12
; FORMAT={-:-/ absolute / inch / decimal}
; #@! TF.CreationDate,2021-03-17T08:29:12+01:00
; #@! TF.GenerationSoftware,Kicad,Pcbnew,(5.99.0-9568-gb9d26a55f2)
; #@! TF.FileFunction,Plated,1,2,PTH
FMAT,2
INCH
T1C0.0100
T2C0.0118
T3C0.0157
T4C0.0236
T5C0.0335
T6C0.0394
T7C0.0551
%
G90
G05
T1
X4.9685Y-5.5945
X5.0Y-5.3425
X5.0Y-5.4291
X5.0118Y-5.5472
X5.1063Y-5.2756
X5.1063Y-5.4173
X5.1063Y-5.5394
X5.1888Y-5.4433
X5.189Y-5.5709
X5.2205Y-4.8898
X5.2677Y-5.2717
X5.2717Y-5.4528
X5.3307Y-4.8898
X5.3346Y-4.5472
X5.438Y-5.5315
X5.5069Y-5.5315
X5.5758Y-5.5315
X5.6161Y-5.3504
X5.6693Y-3.1299
X5.6693Y-3.189
X5.6693Y-3.248
X5.6693Y-3.3071
X5.7185Y-3.376
X5.7776Y-3.376
X5.7795Y-5.1457
X5.8327Y-5.3504
X5.8366Y-3.376
X5.8661Y-5.4843
X5.8957Y-3.376
X5.9547Y-3.376
X6.0138Y-3.376
X6.0157Y-5.4606
X6.0283Y-5.1508
X6.0728Y-3.376
X6.0866Y-5.437
X6.1319Y-3.376
X6.1614Y-3.1299
X6.1614Y-3.189
X6.1614Y-3.248
X6.1614Y-3.3071
X6.1614Y-5.7382
X6.2598Y-3.563
X6.2598Y-5.4528
X6.3031Y-4.1575
X6.3031Y-4.8425
X6.3031Y-5.3661
X6.325Y-4.2087
X6.3307Y-5.2205
X6.3543Y-4.6654
X6.4154Y-4.1299
X6.4154Y-4.1614
X6.4154Y-4.2185
X6.4173Y-4.2618
X6.4331Y-5.3898
X6.437Y-3.937
X6.4567Y-3.563
X6.4644Y-3.7677
X6.4764Y-5.2756
X6.4862Y-4.5059
X6.4921Y-5.6969
X6.4961Y-4.8622
X6.5157Y-4.498
X6.5236Y-5.3661
X6.5315Y-4.248
X6.5354Y-4.3898
X6.5412Y-4.313
X6.5453Y-3.9567
X6.5551Y-4.1457
X6.5551Y-5.8268
X6.5748Y-3.5138
X6.5748Y-5.2047
X6.5787Y-4.4803
X6.5846Y-3.7992
X6.5945Y-3.7205
X6.5945Y-4.9508
X6.6004Y-4.1713
X6.6043Y-4.2874
X6.6043Y-4.8622
X6.624Y-4.124
X6.6634Y-3.1988
X6.6732Y-3.6024
X6.6732Y-3.878
X6.6831Y-3.7992
X6.7126Y-5.1378
X6.7126Y-5.2362
X6.7224Y-3.5433
X6.7323Y-4.2126
X6.7323Y-4.498
T2
X5.9252Y-5.3681
X5.9252Y-5.4075
X5.9449Y-5.3878
X5.9646Y-5.3681
X5.9646Y-5.4075
T3
X6.4536Y-3.7174
X6.6437Y-3.811
T5
X5.0086Y-5.6481
X5.2054Y-5.6481
T6
X6.6831Y-4.5896
X6.6831Y-4.6896
X6.6831Y-4.7896
X6.6831Y-4.8896
X6.6831Y-4.9896
X6.6831Y-5.0896
X6.6831Y-5.1896
X6.6831Y-5.2896
T7
X6.3366Y-5.5917
X6.4173Y-4.7244
X6.6063Y-3.9094
T4
G00X4.9692Y-5.7406
M15
G01X4.9692Y-5.7682
M16
G05
G00X5.2448Y-5.7406
M15
G01X5.2448Y-5.7682
M16
G05
T0
M30
